<?xml version="1.0" encoding="UTF-8"?><svg id="Layer_2" xmlns="http://www.w3.org/2000/svg" viewBox="0 0 8.55 10.89"><defs><style>.cls-1{fill:#fff;stroke-width:0px;}</style></defs><g id="BOREAL_HOME_PAGE"><g id="_1024px_x_768px"><g id="Barre_Menu"><g id="Connexion"><path class="cls-1" d="m4.27,4.59c-1.27,0-2.3-1.03-2.3-2.3S3.01,0,4.27,0s2.3,1.03,2.3,2.3-1.03,2.3-2.3,2.3ZM4.27.41c-1.04,0-1.89.85-1.89,1.89s.85,1.89,1.89,1.89,1.89-.85,1.89-1.89-.85-1.89-1.89-1.89Z"/><path class="cls-1" d="m4.27,10.89c-2.36,0-4.27-1.26-4.27-2.8s1.92-2.8,4.27-2.8,4.27,1.26,4.27,2.8-1.92,2.8-4.27,2.8Zm0-5.2c-2.13,0-3.87,1.08-3.87,2.4s1.73,2.4,3.87,2.4,3.87-1.08,3.87-2.4-1.73-2.4-3.87-2.4Z"/></g></g></g></g></svg>