<?xml version="1.0" encoding="UTF-8"?><svg id="Layer_2" xmlns="http://www.w3.org/2000/svg" viewBox="0 0 19.69 19.69"><defs><style>.cls-1{fill:#efdec2;stroke-width:0px;}</style></defs><g id="BOREAL_HOME_PAGE"><g id="_1920px_x_1080px"><g id="Footer_1920px_x_420px"><path class="cls-1" d="m13.15,9.32c0-.05,0-.09,0-.12,0-.59,0-1.18,0-1.77,0-.46.14-.87.5-1.19.27-.24.6-.33.96-.33.4,0,.81,0,1.21,0,.1,0,.14-.03.14-.14,0-.87,0-1.73,0-2.6,0-.11-.03-.14-.14-.14-.75,0-1.5,0-2.26.02-.74.02-1.44.21-2.07.6-.78.48-1.25,1.19-1.49,2.07-.13.48-.17.98-.17,1.48,0,.65,0,1.31,0,1.96,0,.04,0,.09,0,.15-.05,0-.1,0-.15,0-.63,0-1.26,0-1.89,0-.12,0-.16.03-.16.15,0,.82,0,1.64,0,2.45,0,.11.04.14.15.14.63,0,1.26,0,1.89,0q.16,0,.16.16c0,2.44,0,4.89,0,7.33,0,.04,0,.09,0,.15h-.17c-2.51,0-5.02,0-7.53,0-.84,0-1.68-.58-1.97-1.36C.06,18.06,0,17.78,0,17.49,0,12.41,0,7.32,0,2.23c0-.78.32-1.41.96-1.86C1.3.14,1.67.02,2.08,0c.11,0,.23,0,.35,0C7.44,0,12.44,0,17.45,0c.5,0,.96.13,1.36.43.56.43.88,1,.88,1.71,0,5.16,0,10.33,0,15.49,0,.79-.43,1.39-1.12,1.79-.32.18-.67.27-1.04.27-1.4,0-2.8,0-4.2,0-.05,0-.11,0-.17,0,0-.05,0-.09,0-.13,0-2.45,0-4.91,0-7.36,0-.12.04-.15.15-.15.63,0,1.27,0,1.9,0,.1,0,.14-.03.17-.13.19-.83.38-1.66.57-2.48,0-.03,0-.07.01-.12h-2.79Z"/></g></g></g></svg>