<?xml version="1.0" encoding="UTF-8"?>
<svg id="Layer_2" data-name="Layer 2" xmlns="http://www.w3.org/2000/svg" viewBox="0 0 78.6 94.22">
  <defs>
    <style>
      .cls-1 {
        fill: #82b4b3;
        stroke-width: 0px;
      }
    </style>
  </defs>
  <g id="BOREAL_HOME_PAGE" data-name="BOREAL HOME PAGE">
    <g id="_768px_x_1024px" data-name="768px x 1024px">
      <g id="_4_x_Boutons" data-name="4 x Boutons">
        <g>
          <path class="cls-1" d="m40.3,14.18c-4.84,0-8.78,3.94-8.78,8.78s3.94,8.78,8.78,8.78,8.78-3.94,8.78-8.78-3.94-8.78-8.78-8.78Zm0,15.41c-3.66,0-6.63-2.98-6.63-6.63s2.98-6.63,6.63-6.63,6.63,2.98,6.63,6.63-2.98,6.63-6.63,6.63Z"/>
          <path class="cls-1" d="m78.6,39.3C78.6,17.63,60.97,0,39.3,0S0,17.63,0,39.3c0,10.57,4.33,20.8,11.9,28.16-1.46,4.32-3.49,7.37-7.76,8.62-.35.1-.62.37-.72.71-.11.34-.03.72.19,1,.11.14,2.83,3.44,7.6,6.27,4.43,2.63,9.16,3.97,13.94,3.97,1.64,0,3.28-.16,4.91-.47v1.02c0,3.12,2.54,5.66,5.66,5.66,1.89,0,3.55-.93,4.58-2.35,1.03,1.42,2.7,2.35,4.58,2.35,3.12,0,5.66-2.54,5.66-5.66v-11.6c16.56-4.93,28.06-20.32,28.06-37.67Zm-21.71,13.13v-7.14c0-5.79-4.71-10.49-10.49-10.49h-12.2c-.38,0-.75.02-1.12.06-1.1,0-10.88.38-15.89,13.76-1.05,2.8-1.83,5.55-2.49,8.14-3.65-5.11-5.57-11.12-5.57-17.46,0-16.64,13.54-30.18,30.18-30.18s30.18,13.54,30.18,30.18c0,9.83-4.67,18.86-12.59,24.53v-11.4Zm-13.73-15.48c-1.28.73-2.56,1.07-3.84,1.01-1.26-.06-2.35-.5-3.23-1.01h7.07Zm-30.79,45.3c-2.81-1.66-4.88-3.52-6.04-4.68,4.24-1.83,6.32-5.48,7.78-10,.02-.06.04-.11.05-.17.65-2.04,1.18-4.25,1.73-6.55.84-3.5,1.79-7.46,3.29-11.48,1.55-4.14,3.58-6.89,5.6-8.73-.7,1.4-1.09,2.98-1.09,4.65v19.32c0,2.31,1.88,4.2,4.2,4.2.79,0,1.52-.22,2.15-.6v17.15c-6.07,1.28-12.02.24-17.69-3.11Zm36.02,6.31c0,1.93-1.57,3.51-3.51,3.51s-3.51-1.57-3.51-3.51l-.03-22.08c0-.59-.48-1.07-1.07-1.07h0c-.59,0-1.07.48-1.07,1.08l.03,22.07c0,1.93-1.57,3.51-3.51,3.51s-3.51-1.57-3.51-3.51v-27.28c0-.16-.04-.32-.1-.45v-10.17c0-.59-.48-1.07-1.07-1.07s-1.07.48-1.07,1.07v13.95c0,1.13-.92,2.05-2.05,2.05s-2.05-.92-2.05-2.05v-19.32c0-4.1,2.98-7.52,6.88-8.21.91.91,3.24,2.86,6.45,3.02,2.6.13,5.13-.93,7.53-3.14,4.45.17,8.02,3.84,8.02,8.34v19.32c0,1.13-.92,2.05-2.05,2.05s-2.05-.92-2.05-2.05v-13.95c0-.59-.48-1.07-1.07-1.07s-1.07.48-1.07,1.07v10.17c-.07.14-.1.29-.1.45v27.28Zm2.15-13.85v-6.51c.63.38,1.37.6,2.15.6,1.51,0,2.83-.8,3.57-2,.04-.02.08-.04.12-.06,9.55-5.95,15.24-16.21,15.24-27.45,0-17.82-14.5-32.33-32.33-32.33S6.97,21.47,6.97,39.3c0,7.4,2.44,14.37,7.04,20.15,0,0,0,0,0,0-.07.3-.15.6-.22.9-.41,1.7-.79,3.3-1.2,4.79-6.76-6.96-10.46-16.07-10.46-25.84C2.15,18.81,18.81,2.15,39.3,2.15s37.15,16.67,37.15,37.15c0,16.19-10.59,30.56-25.92,35.42Z"/>
        </g>
      </g>
    </g>
  </g>
</svg>