<?xml version="1.0" encoding="UTF-8"?><svg id="Layer_2" xmlns="http://www.w3.org/2000/svg" viewBox="0 0 530.55 63.99"><defs><style>.cls-1{fill:#172e2c;}.cls-1,.cls-2{stroke-width:0px;}.cls-3{opacity:.5;}.cls-4{stroke-width:1.14px;}.cls-4,.cls-5{fill:none;stroke:#efdec2;stroke-miterlimit:10;}.cls-5{stroke-width:1.36px;}.cls-2{fill:#efdec2;}</style></defs><g id="BOREAL_HOME_PAGE"><g id="_1920px_x_1080px"><g id="Bloc_Vert_1920px_x_670px"><path class="cls-2" d="m530.55,18.28h-62.67l12.49-9.99h37.91l12.27,9.99Zm-58.61-1.42h54.61l-8.77-7.15h-36.9l-8.94,7.15Z"/><path class="cls-2" d="m524.62,23.28c-2.99,0-5.42-2.43-5.42-5.42h1.42c0,2.2,1.79,3.99,4,3.99s4-1.79,4-3.99h1.42c0,2.99-2.43,5.42-5.42,5.42Z"/><path class="cls-2" d="m514.48,23.28c-2.99,0-5.42-2.43-5.42-5.42h1.42c0,2.2,1.79,3.99,4,3.99s3.86-1.66,3.99-3.76l-6.85-8.66,1.12-.88,7.16,9.06v.25c0,2.99-2.43,5.42-5.42,5.42Z"/><path class="cls-2" d="m504.35,23.28c-2.99,0-5.42-2.43-5.42-5.42h1.42c0,2.2,1.79,3.99,4,3.99s3.93-1.72,3.99-3.87l-3.3-8.47,1.33-.52,3.39,8.72v.13c0,2.99-2.43,5.42-5.42,5.42Z"/><path class="cls-2" d="m494.21,23.28c-2.99,0-5.42-2.43-5.42-5.42h1.42c0,2.2,1.79,3.99,4,3.99s4-1.79,4-3.99l.75-8.66,1.42.12-.75,8.6c0,2.93-2.43,5.36-5.42,5.36Z"/><path class="cls-2" d="m484.07,23.28c-2.99,0-5.42-2.43-5.42-5.42h1.42c0,2.2,1.79,3.99,4,3.99s3.99-1.79,3.99-3.99v-.15l3.89-8.71,1.3.58-3.77,8.44c-.08,2.92-2.48,5.26-5.42,5.26Z"/><path class="cls-2" d="m473.93,23.28c-2.99,0-5.42-2.43-5.42-5.42h1.42c0,2.2,1.79,3.99,3.99,3.99s4-1.79,4-3.99v-.25l7.2-9.06,1.11.89-6.9,8.68c-.13,2.87-2.51,5.16-5.41,5.16Z"/><rect class="cls-2" x="518.68" y="19.52" width="1.42" height="17.73"/><rect class="cls-2" x="478.16" y="19.52" width="1.42" height="17.73"/><rect class="cls-2" x="478.16" y="56.34" width="1.42" height="7.26"/><rect class="cls-2" x="469.62" y="35.95" width="58.74" height="1.42"/><polygon class="cls-2" points="509.18 57.24 473.29 57.24 473.29 35.95 524.68 35.95 524.68 47.66 523.26 47.66 523.26 37.37 474.71 37.37 474.71 55.82 509.18 55.82 509.18 57.24"/><path class="cls-2" d="m517.98,63.99c-5.23,0-9.48-4.25-9.48-9.48s4.25-9.48,9.48-9.48,9.48,4.25,9.48,9.48-4.25,9.48-9.48,9.48Zm0-17.53c-4.44,0-8.05,3.61-8.05,8.05s3.61,8.05,8.05,8.05,8.05-3.61,8.05-8.05-3.61-8.05-8.05-8.05Z"/><path class="cls-2" d="m517.98,60.4c-3.25,0-5.89-2.64-5.89-5.89s2.64-5.89,5.89-5.89,5.89,2.64,5.89,5.89-2.64,5.89-5.89,5.89Zm0-10.35c-2.46,0-4.47,2-4.47,4.47s2,4.47,4.47,4.47,4.47-2,4.47-4.47-2-4.47-4.47-4.47Z"/><path class="cls-2" d="m80.43,48.29c-2.16,0-3.91-1.75-3.91-3.91s1.75-3.91,3.91-3.91v1.42c-1.37,0-2.49,1.12-2.49,2.49s1.12,2.49,2.49,2.49v1.42Z"/><path class="cls-2" d="m12.85,54.37c-2.65,0-4.81,2.16-4.81,4.81s2.16,4.81,4.81,4.81,4.81-2.16,4.81-4.81-2.16-4.81-4.81-4.81Zm0,8.2c-1.87,0-3.39-1.52-3.39-3.39s1.52-3.39,3.39-3.39,3.39,1.52,3.39,3.39-1.52,3.39-3.39,3.39Z"/><path class="cls-2" d="m64.74,54.37c-2.65,0-4.81,2.16-4.81,4.81s2.16,4.81,4.81,4.81,4.81-2.16,4.81-4.81-2.16-4.81-4.81-4.81Zm0,8.2c-1.87,0-3.39-1.52-3.39-3.39s1.52-3.39,3.39-3.39,3.39,1.52,3.39,3.39-1.52,3.39-3.39,3.39Z"/><path class="cls-2" d="m8.37,22.09v.58h-.01v3.7s.01.09.01.14v12.85h31.69v-17.27H8.37Zm6.45,1.42h3.61v2.86c0,1-.81,1.81-1.81,1.81s-1.81-.81-1.81-1.81v-2.86Zm5.04,0h3.61v2.86c0,1-.81,1.81-1.81,1.81s-1.81-.81-1.81-1.81v-2.86Zm5.04,0h3.61v2.86c0,1-.81,1.81-1.81,1.81s-1.81-.81-1.81-1.81v-2.86Zm5.04,0h3.61v2.86c0,1-.81,1.81-1.81,1.81s-1.81-.81-1.81-1.81v-2.86Zm5.04,0h3.61v2.86c0,1-.81,1.81-1.81,1.81s-1.81-.81-1.81-1.81v-2.86Zm-21.57,0v2.86c0,1-.81,1.81-1.81,1.81s-1.72-.74-1.79-1.67v-3h3.6Zm-3.6,14.42v-8.88c.51.34,1.13.55,1.79.55,1.02,0,1.93-.49,2.52-1.23.59.74,1.49,1.23,2.52,1.23s1.93-.49,2.52-1.23c.59.74,1.49,1.23,2.52,1.23s1.93-.49,2.52-1.23c.59.74,1.49,1.23,2.52,1.23s1.93-.49,2.52-1.23c.59.74,1.49,1.23,2.52,1.23s1.93-.49,2.52-1.23c.59.74,1.49,1.23,2.52,1.23.7,0,1.34-.23,1.87-.6v8.94H9.8Z"/><polygon class="cls-2" points="50.83 44.11 52.26 44.11 52.26 40.85 53.13 40.85 53.13 39.43 50.83 39.43 50.83 44.11"/><path class="cls-2" d="m79.1,37.08l-5.39-1.54c-.24-.07-.44-.22-.58-.42l-12.99-18.84c-.46-.67-1.23-1.07-2.05-1.07h-14.77v-1.36h1.58v-7.56h-13.51v7.56h1.77v1.36H2.49c-1.37,0-2.49,1.12-2.49,2.49v39.14c0,1.37,1.12,2.49,2.49,2.49h4.51l.05-.66c.23-3.03,2.78-5.4,5.82-5.4s5.59,2.37,5.82,5.4l.05.66h39.95l.05-.66c.23-3.03,2.78-5.4,5.82-5.4s5.59,2.37,5.82,5.4l.05.66h8c1.37,0,2.49-1.12,2.49-2.49v-17.36c0-1.1-.74-2.09-1.8-2.39ZM32.81,7.71h10.67v4.71h-10.67v-4.71Zm1.77,7.29v-.96h7.31v.96h-7.31Zm28.48,8.02l7.4,10.73-17.41.19v-10.72h10.01v-.2ZM12.87,51.84c-3.55,0-6.57,2.61-7.16,6.05h-3.22c-.59,0-1.06-.48-1.06-1.06V17.69c0-.59.48-1.06,1.06-1.06h44.77v41.27h-27.24c-.58-3.44-3.6-6.05-7.16-6.05Zm66.62,4.99c0,.59-.48,1.06-1.06,1.06h-6.71c-.58-3.44-3.61-6.05-7.16-6.05s-6.57,2.61-7.16,6.05h-8.72V16.63h9.41c.35,0,.68.17.88.46l3.25,4.71h-10.59v13.58l19.81-.21.52.76c.33.47.81.82,1.36.98l5.39,1.54c.45.13.77.55.77,1.02v17.36Z"/><rect class="cls-2" x="285.81" y="52.88" width="1.42" height="11.11"/><rect class="cls-2" x="235.01" y="52.88" width="1.42" height="11.11"/><path class="cls-2" d="m248.52,33.92h-1.42c0-3.07-2.49-5.56-5.56-5.56s-5.56,2.49-5.56,5.56h-1.42c0-3.85,3.13-6.98,6.98-6.98s6.98,3.13,6.98,6.98Z"/><path class="cls-2" d="m297.39,54.12h-72.51l4.08-17.3h63.82l4.61,17.3Zm-70.72-1.42h68.86l-3.85-14.45h-61.6l-3.41,14.45Z"/><rect class="cls-2" x="240.82" y="24.48" width="1.42" height="3.18"/><path class="cls-2" d="m271.72,37.71h-16.57l-1.46-4.07h19.48l-1.46,4.07Zm-15.57-1.42h14.56l.44-1.22h-15.44l.44,1.22Z"/><path class="cls-2" d="m249.82,37.71h-16.57l-1.46-4.07h19.48l-1.46,4.07Zm-15.57-1.42h14.56l.44-1.22h-15.44l.44,1.22Z"/><path class="cls-2" d="m289.86,37.71h-11.08l-.83-5.23h12.73l-.83,5.23Zm-9.87-1.42h8.65l.38-2.38h-9.4l.38,2.38Z"/><path class="cls-2" d="m289.86,33.74h-11.08l-.83-5.23h12.73l-.83,5.23Zm-9.87-1.42h8.65l.38-2.38h-9.4l.38,2.38Z"/><path class="cls-2" d="m289.86,29.78h-11.08l-.83-5.23h12.73l-.83,5.23Zm-9.87-1.42h8.65l.38-2.38h-9.4l.38,2.38Z"/><rect class="cls-2" x="262.72" y="20.07" width="1.42" height="13.54"/><rect class="cls-2" x="257.48" y="19.53" width="11.82" height="1.42"/><rect class="cls-2" x="254.39" y="27.01" width="17.55" height="1.42"/><rect class="cls-2" x="229.08" y="49.39" width="5.66" height="1.42" transform="translate(139.32 268.54) rotate(-79.22)"/><rect class="cls-2" x="290.99" y="43.5" width="1.42" height="10.02" transform="translate(-3.66 62.74) rotate(-12.2)"/><path class="cls-2" d="m399.2,33.93c-.75,0-1.43-.31-2.03-.93-3.82-3.97-3.19-21.29-3.17-22.03l.03-.68h9.36s.03.69.03.69c.09,1.9.77,18.68-2.58,22.2-.48.5-1.03.76-1.64.76Zm-3.79-22.22c-.15,5.3.09,17.5,2.79,20.3.32.33.65.49,1,.49.13,0,.34-.03.61-.32,2.38-2.49,2.42-15.02,2.22-20.47h-6.62Z"/><rect class="cls-2" x="398.49" y="33.22" width="1.42" height="13.32"/><path class="cls-2" d="m399.2,49.62c-3.94,0-5.94-.55-5.94-1.65s2-1.65,5.94-1.65,5.94.55,5.94,1.65-2,1.65-5.94,1.65Zm-3.33-1.65c.79.12,1.91.22,3.33.22s2.53-.1,3.33-.22c-.79-.12-1.91-.22-3.33-.22s-2.53.1-3.33.22Z"/><rect class="cls-2" x="395.09" y="18.32" width="7.28" height="1.42"/><rect class="cls-2" x="398.55" y="21.73" width="3.71" height="1.42"/><ellipse class="cls-2" cx="397.84" cy="15.66" rx=".55" ry=".69"/><ellipse class="cls-2" cx="400.12" cy="13.18" rx=".55" ry=".69"/><ellipse class="cls-2" cx="399.13" cy="8.31" rx=".55" ry=".69"/><ellipse class="cls-2" cx="396.84" cy="6.03" rx=".55" ry=".69"/><ellipse class="cls-2" cx="398.38" cy="3.15" rx=".55" ry=".69"/><path class="cls-2" d="m382.52,37.49c-.75,0-1.43-.31-2.03-.93-3.82-3.97-3.19-21.29-3.17-22.03l.03-.68h9.36s.03.69.03.69c.09,1.9.77,18.68-2.58,22.2-.48.5-1.03.76-1.64.76Zm-3.79-22.22c-.15,5.3.09,17.5,2.79,20.3.32.33.65.49,1,.49.13,0,.34-.03.61-.32,2.38-2.49,2.42-15.02,2.22-20.47h-6.62Z"/><rect class="cls-2" x="381.81" y="36.78" width="1.42" height="13.32"/><path class="cls-2" d="m382.52,53.17c-3.94,0-5.94-.55-5.94-1.65s2-1.65,5.94-1.65,5.94.55,5.94,1.65-2,1.65-5.94,1.65Zm-3.33-1.65c.79.12,1.91.22,3.33.22s2.53-.1,3.33-.22c-.79-.12-1.91-.22-3.33-.22s-2.53.1-3.33.22Z"/><rect class="cls-2" x="378.41" y="21.87" width="7.28" height="1.42"/><rect class="cls-2" x="381.87" y="25.29" width="3.71" height="1.42"/><ellipse class="cls-2" cx="381.16" cy="19.22" rx=".55" ry=".69"/><ellipse class="cls-2" cx="383.44" cy="16.73" rx=".55" ry=".69"/><ellipse class="cls-2" cx="382.45" cy="11.87" rx=".55" ry=".69"/><ellipse class="cls-2" cx="380.16" cy="9.59" rx=".55" ry=".69"/><ellipse class="cls-2" cx="381.7" cy="6.71" rx=".55" ry=".69"/><path class="cls-2" d="m365.84,33.93c-.75,0-1.43-.31-2.03-.93-3.82-3.97-3.19-21.29-3.17-22.03l.03-.68h9.36s.03.69.03.69c.09,1.9.77,18.68-2.58,22.2-.48.5-1.03.76-1.64.76Zm-3.79-22.22c-.15,5.3.09,17.5,2.79,20.3.32.33.65.49,1,.49.13,0,.34-.03.61-.32,2.38-2.49,2.42-15.02,2.22-20.47h-6.62Z"/><rect class="cls-2" x="365.13" y="33.22" width="1.42" height="13.32"/><path class="cls-2" d="m365.84,49.62c-3.94,0-5.94-.55-5.94-1.65s2-1.65,5.94-1.65,5.94.55,5.94,1.65-2,1.65-5.94,1.65Zm-3.33-1.65c.79.12,1.91.22,3.33.22s2.53-.1,3.33-.22c-.79-.12-1.91-.22-3.33-.22s-2.53.1-3.33.22Z"/><rect class="cls-2" x="361.73" y="18.32" width="7.28" height="1.42"/><rect class="cls-2" x="365.19" y="21.73" width="3.71" height="1.42"/><ellipse class="cls-2" cx="364.48" cy="15.66" rx=".55" ry=".69"/><ellipse class="cls-2" cx="366.76" cy="13.18" rx=".55" ry=".69"/><ellipse class="cls-2" cx="365.77" cy="8.31" rx=".55" ry=".69"/><ellipse class="cls-2" cx="363.49" cy="6.03" rx=".55" ry=".69"/><ellipse class="cls-2" cx="365.02" cy="3.15" rx=".55" ry=".69"/><ellipse class="cls-4" cx="382.38" cy="49.74" rx="35.54" ry="5.99"/><ellipse class="cls-5" cx="382.27" cy="50.46" rx="42.34" ry="7.13"/><g class="cls-3"><path class="cls-1" d="m137.34,60.45l2.42,3.54h-1.37s-1.73-2.61-1.73-2.61l-1.7,2.61h-1.45s2.42-3.54,2.42-3.54l-2.26-3.29h1.34s1.62,2.41,1.62,2.41l1.55-2.41h1.42s-2.26,3.29-2.26,3.29Z"/></g><path class="cls-2" d="m149.77,20.9c-2.91,0-5.5-1.15-6.78-3-.22-.32-.14-.77.18-.99.32-.22.77-.14.99.18,1,1.45,3.2,2.39,5.61,2.39s4.77-1.02,5.7-2.53c.21-.33.64-.44.98-.23.33.21.44.64.23.98-1.2,1.95-3.91,3.21-6.91,3.21Z"/><path class="cls-2" d="m157.98,28.92c-.06,0-.13,0-.19-.03-6.27-1.73-11.1-1.73-16.66,0-.22.07-.46.03-.64-.11-.36-.26-.42-.31-.39-6.83-7.16-.23-8.7-3.92-8.7-7.03,0-5.19,4.22-9.41,9.41-9.41.02,0,.03,0,.05,0,1.47-3.32,4.8-5.51,8.45-5.51s7.13,2.29,8.55,5.74c.04,0,.08,0,.12,0,5.1,0,9.25,4.15,9.25,9.25,0,3.04-1.5,6.64-8.53,6.86v6.36c0,.22-.1.43-.28.57-.13.1-.28.15-.43.15Zm-8.8-2.75c2.55,0,5.18.37,8.09,1.11v-6.14c0-.39.32-.71.71-.71,5.26,0,7.82-1.78,7.82-5.45,0-4.31-3.51-7.82-7.82-7.82-.16,0-.31.01-.47.02h-.08c-.32.02-.62-.17-.72-.47-1.08-3.16-4.06-5.29-7.39-5.29s-6.18,2.04-7.32,5.08c-.11.29-.4.48-.71.46h-.15c-.11-.02-.22-.02-.33-.02-4.41,0-7.99,3.58-7.99,7.99,0,3.78,2.61,5.62,7.99,5.62.19,0,.37.08.5.21.13.13.21.32.21.51-.01,2.27,0,4.78.03,6.02,2.61-.74,5.08-1.11,7.63-1.11Z"/><path class="cls-2" d="m149.75,41.01c-4.77,0-8.66-4.08-8.66-9.1,0-.39.32-.71.71-.71s.71.32.71.71c0,4.23,3.25,7.68,7.23,7.68s7.23-3.44,7.23-7.68c0-.39.32-.71.71-.71s.71.32.71.71c0,5.02-3.88,9.1-8.66,9.1Z"/><path class="cls-2" d="m171.99,59.85c-.39,0-.71-.31-.71-.7v-.67c-.07-5.24-.1-7.87-1.14-9.37-1.01-1.47-3.21-2.1-7.6-3.36-1.56-.45-3.48-1-5.69-1.7l-3.96,3.69c-.29.27-.74.25-1.01-.04-.27-.29-.25-.74.04-1.01l4.27-3.97c.19-.17.46-.24.7-.16,2.37.75,4.33,1.31,6.06,1.81,9.44,2.72,9.62,2.98,9.76,14.09v.67c.01.39-.3.72-.69.72h0Z"/><path class="cls-2" d="m129.6,59.85s-.02,0-.03,0c-.39-.02-.7-.35-.68-.74.46-11.46,1.34-12.18,8.06-14.42,1.65-.55,3.69-1.23,6.2-2.26.24-.1.51-.06.71.1l11.77,9.27c.17.13.27.34.27.56v6.47c0,.39-.32.71-.71.71s-.71-.32-.71-.71v-6.13l-11.17-8.8c-2.38.97-4.33,1.62-5.91,2.14-6.15,2.04-6.65,2.21-7.09,13.12-.02.38-.33.68-.71.68Z"/><path class="cls-2" d="m151.95,55.54h-1.62c-.39,0-.71-.32-.71-.71s.32-.71.71-.71h1.62c.39,0,.71.32.71.71s-.32.71-.71.71Z"/><path class="cls-2" d="m147.54,55.54h-1.62c-.39,0-.71-.32-.71-.71s.32-.71.71-.71h1.62c.39,0,.71.32.71.71s-.32.71-.71.71Z"/><path class="cls-2" d="m151.95,58.92h-1.62c-.39,0-.71-.32-.71-.71s.32-.71.71-.71h1.62c.39,0,.71.32.71.71s-.32.71-.71.71Z"/><path class="cls-2" d="m147.54,58.92h-1.62c-.39,0-.71-.32-.71-.71s.32-.71.71-.71h1.62c.39,0,.71.32.71.71s-.32.71-.71.71Z"/><path class="cls-2" d="m162.99,57.19h-4.41c-.39,0-.71-.32-.71-.71s.32-.71.71-.71h4.41c.39,0,.71.32.71.71s-.32.71-.71.71Z"/></g></g></g></svg>