<?xml version="1.0" encoding="UTF-8"?><svg id="Layer_2" xmlns="http://www.w3.org/2000/svg" viewBox="0 0 19.44 19.41"><defs><style>.cls-1{fill:#efdec2;stroke-width:0px;}</style></defs><g id="BOREAL_HOME_PAGE"><g id="_1920px_x_1080px"><g id="Footer_1920px_x_420px"><path class="cls-1" d="m9.73,0c2.46,0,4.91,0,7.37,0,1.47,0,2.33.81,2.33,2.27.02,4.96.02,9.91,0,14.87,0,1.44-.86,2.26-2.29,2.26-4.96,0-9.91,0-14.87,0-1.4,0-2.27-.87-2.27-2.28C0,12.19,0,7.26,0,2.32,0,.87.85,0,2.29,0c2.48,0,4.96,0,7.43,0Zm.79,16.7c0-.27,0-.48,0-.7,0-1.43-.01-2.86,0-4.29.01-1.15.55-1.86,1.44-1.95,1.21-.13,1.86.5,1.88,1.91.03,1.45,0,2.91,0,4.36,0,.23,0,.45,0,.67h2.83c.03-.09.07-.15.07-.21,0-2.01.08-4.02-.02-6.02-.11-2.34-1.48-3.52-3.74-3.39-1.01.06-1.77.6-2.46,1.39-.02-.42-.04-.76-.05-1.1h-2.75v9.32h2.78Zm-4.68,0V7.38h-2.85v9.32h2.85ZM2.7,4.38c0,.97.76,1.77,1.7,1.78.93,0,1.75-.83,1.74-1.76,0-.93-.77-1.71-1.7-1.73-.96-.02-1.74.74-1.75,1.72Z"/></g></g></g></svg>