<?xml version="1.0" encoding="UTF-8"?>
<svg id="Layer_2" data-name="Layer 2" xmlns="http://www.w3.org/2000/svg" viewBox="0 0 49.75 51.18">
  <defs>
    <style>
      .cls-1 {
        fill: #61978a;
        stroke-width: 0px;
      }
    </style>
  </defs>
  <g id="BOREAL_HOME_PAGE" data-name="BOREAL HOME PAGE">
    <g id="_360px_x_640px" data-name="360px x 640px">
      <g id="_4_x_Boutons" data-name="4 x Boutons">
        <g>
          <path class="cls-1" d="m36.37,19.4c0,2.23,1.81,4.05,4.05,4.05s4.05-1.81,4.05-4.05c0-2.23-1.81-4.05-4.05-4.05-2.23,0-4.05,1.81-4.05,4.05Zm1.2,0c0-1.57,1.27-2.84,2.84-2.84s2.84,1.27,2.84,2.84c0,1.57-1.27,2.84-2.84,2.84s-2.84-1.27-2.84-2.84Z"/>
          <path class="cls-1" d="m33.22,28.64c.33,0,.6.27.6.6v6.72c0,.33-.27.6-.6.6s-.6-.27-.6-.6v-6.72c0-.33.27-.6.6-.6Z"/>
          <path class="cls-1" d="m29.22,15.36c-2.23,0-4.05,1.81-4.05,4.05,0,2.23,1.81,4.05,4.05,4.05s4.05-1.81,4.05-4.05-1.81-4.05-4.05-4.05Zm0,1.2c1.57,0,2.84,1.27,2.84,2.84s-1.27,2.84-2.84,2.84c-1.57,0-2.84-1.27-2.84-2.84,0-1.57,1.27-2.84,2.84-2.84Z"/>
          <path class="cls-1" d="m25.14,28.64c.33,0,.6.27.6.6v6.72c0,.33-.27.6-.6.6s-.6-.27-.6-.6v-6.72c0-.33.27-.6.6-.6Z"/>
          <path class="cls-1" d="m18.06,15.36c-2.23,0-4.05,1.81-4.05,4.05,0,2.23,1.81,4.05,4.05,4.05s4.05-1.81,4.05-4.05-1.81-4.05-4.05-4.05Zm2.84,4.05c0,1.57-1.27,2.84-2.84,2.84s-2.84-1.27-2.84-2.84,1.27-2.84,2.84-2.84,2.84,1.27,2.84,2.84Z"/>
          <path class="cls-1" d="m23.72,4.22c-1.17.4-2.31.92-3.37,1.57-.1.06-.2.09-.31.09-.2,0-.4-.1-.52-.29-.17-.28-.08-.65.2-.83,1.14-.69,2.35-1.25,3.61-1.68.31-.11.66.06.76.38.11.32-.06.66-.38.76Z"/>
          <path class="cls-1" d="m47.04,21.11c-.33,0-.6-.27-.6-.6,0-9.48-7.71-17.2-17.2-17.2-.33,0-.6-.27-.6-.6,0-.33.27-.6.6-.6,10.15,0,18.4,8.25,18.4,18.4,0,.33-.27.6-.6.6Z"/>
          <path class="cls-1" d="m.39,50.78c.26.27.61.4.96.4s.69-.13.95-.39l9.05-8.98c.42-.41.51-1.03.27-1.53l4.26-4.22c3.59,3.09,8.26,4.95,13.35,4.95,11.31,0,20.51-9.2,20.51-20.51C49.75,9.2,40.55,0,29.24,0,17.93,0,8.73,9.2,8.73,20.51c0,5.78,2.41,11.01,6.27,14.74l-4.31,4.28c-.43-.09-.9.03-1.23.36L.4,48.87c-.53.53-.53,1.38,0,1.92Zm48.15-30.27c0,2.16-.36,4.23-1.01,6.17-.82-1.55-2.44-2.57-4.29-2.57h-5.65c-1.01,0-1.96.3-2.77.87-.79-.55-1.74-.87-2.77-.87h-5.65c-1.02,0-1.97.32-2.75.86-.81-.56-1.75-.86-2.75-.86h-5.65c-1.81,0-3.46,1.03-4.29,2.58-.66-1.94-1.01-4.02-1.01-6.18,0-10.64,8.66-19.3,19.3-19.3,10.64,0,19.3,8.66,19.3,19.3Zm-19.3,19.3c-5.86,0-11.12-2.62-14.66-6.76v-3.82c0-.33-.27-.6-.6-.6s-.6.27-.6.6v2.26c-.69-.99-1.28-2.04-1.78-3.15.03-.05.06-.11.07-.17.37-1.66,1.87-2.86,3.57-2.86h5.65c.65,0,1.27.17,1.82.49-.73.85-1.18,1.96-1.18,3.16v6.99c0,.33.27.6.6.6s.6-.27.6-.6v-6.99c0-2.01,1.64-3.65,3.65-3.65h5.65c2.01,0,3.65,1.64,3.65,3.65v6.99c0,.33.27.6.6.6s.6-.27.6-.6v-6.99c0-1.2-.44-2.3-1.16-3.15.56-.33,1.19-.51,1.85-.51h5.65c1.79,0,3.31,1.28,3.6,3.04,0,.01,0,.02,0,.04-.49,1.09-1.08,2.13-1.76,3.1v-2.26c0-.33-.27-.6-.6-.6s-.6.27-.6.6v3.82c-3.54,4.13-8.8,6.76-14.66,6.76Z"/>
        </g>
      </g>
    </g>
  </g>
</svg>