<?xml version="1.0" encoding="UTF-8"?>
<svg id="Calque_1" data-name="Calque 1" xmlns="http://www.w3.org/2000/svg" viewBox="0 0 50 50">
  <defs>
    <style>
      .cls-1 {
        fill: #ff6b1a;
        stroke-width: 0px;
      }
    </style>
  </defs>
  <path class="cls-1" d="m27.04,24.66c.05.37.02.76-.14,1.16-.33.85-1.12,1.45-2.02,1.52-1.49.12-2.72-1.16-2.55-2.66.13-1.09,1.01-1.96,2.11-2.08.57-.06,1.11.09,1.54.37.1.06.22.05.31-.03l.42-.42c.06-.06.06-.17-.02-.23-.62-.47-1.41-.72-2.26-.66-1.64.12-2.97,1.46-3.08,3.11-.13,2.01,1.52,3.67,3.53,3.56,1.66-.1,3.01-1.43,3.13-3.09.03-.43-.02-.84-.13-1.22-.03-.11-.17-.14-.24-.06l-.53.53c-.05.05-.08.12-.07.19Z"/>
  <path class="cls-1" d="m27.96,21.75l-3.01,3.02c-.15.15-.39.15-.54,0l-.61-.61c-.15-.15-.39-.15-.54,0l-.14.14c-.15.15-.15.39,0,.54l.87.88h0s.4.4.4.4c.15.15.39.15.54,0l3.69-3.69c.15-.15.15-.39,0-.54l-.14-.14c-.15-.15-.39-.15-.54,0Z"/>
</svg>