<?xml version="1.0" encoding="UTF-8"?>
<svg id="Calque_1" data-name="Calque 1" xmlns="http://www.w3.org/2000/svg" viewBox="0 0 50 50">
  <defs>
    <style>
      .cls-1 {
        fill: #ff6b1a;
      }

      .cls-1, .cls-2 {
        stroke-width: 0px;
      }

      .cls-2 {
        fill: #006663;
      }
    </style>
  </defs>
  <path class="cls-1" d="m23.6,26.09c-.08-.07-.12-.16-.12-.27s.04-.2.12-.28c.08-.07.18-.11.3-.11s.22.04.3.11c.08.07.12.17.12.28s-.04.2-.12.27c-.08.07-.18.11-.3.11s-.22-.04-.3-.11Z"/>
  <path class="cls-2" d="m6.81,24.06c.12-.07.26-.1.42-.1.19,0,.36.05.51.14.15.1.27.23.36.41s.13.38.13.62-.04.44-.13.62-.21.32-.36.41c-.15.1-.32.15-.51.15-.16,0-.3-.03-.42-.1s-.21-.15-.28-.26v.32h-.7v-3.04h.7v1.07c.07-.11.16-.19.28-.26Zm.57.66c-.1-.1-.22-.15-.36-.15s-.26.05-.36.15c-.1.1-.15.24-.15.41s.05.31.15.41c.1.1.22.15.36.15s.26-.05.36-.15c.1-.1.15-.24.15-.42s-.05-.31-.15-.41Z"/>
  <path class="cls-2" d="m9.7,26.18c-.18-.1-.32-.23-.42-.41-.1-.18-.15-.39-.15-.62s.05-.44.16-.62c.1-.18.25-.32.43-.41.18-.1.38-.14.61-.14s.43.05.61.14c.18.1.32.23.43.41s.16.39.16.62-.05.44-.16.62-.25.32-.43.41c-.18.1-.39.14-.61.14s-.43-.05-.61-.14Zm.95-.52c.09-.11.14-.26.14-.46s-.05-.35-.14-.46c-.09-.11-.2-.16-.34-.16s-.25.05-.34.16c-.09.11-.14.26-.14.46s.04.35.13.46c.09.11.2.16.33.16s.25-.05.34-.16Z"/>
  <path class="cls-2" d="m13.55,24.12c.12-.07.26-.11.41-.11v.74h-.19c-.18,0-.31.04-.39.11-.09.08-.13.21-.13.4v1.06h-.7v-2.29h.7v.38c.08-.13.18-.23.31-.3Z"/>
  <path class="cls-2" d="m17.1,25.31h-1.59c.01.14.06.25.14.33s.18.11.3.11c.18,0,.3-.07.37-.22h.75c-.04.15-.11.29-.21.41-.1.12-.23.22-.38.28-.15.07-.32.1-.5.1-.22,0-.42-.05-.6-.14-.18-.1-.31-.23-.41-.41s-.15-.39-.15-.62.05-.45.15-.62c.1-.18.23-.31.41-.41.18-.1.38-.14.6-.14s.42.05.59.14c.17.09.31.23.4.4.1.17.15.37.15.6,0,.07,0,.13-.01.21Zm-.71-.39c0-.12-.04-.22-.12-.29-.08-.07-.18-.11-.31-.11s-.22.03-.3.1c-.08.07-.13.17-.15.29h.88Z"/>
  <path class="cls-2" d="m18.13,24.52c.09-.18.21-.31.36-.41.15-.1.32-.14.51-.14.16,0,.3.03.42.1s.22.15.28.26v-.32h.7v2.29h-.7v-.32c-.07.11-.16.19-.29.26s-.26.1-.43.1c-.19,0-.36-.05-.51-.15-.15-.1-.27-.24-.36-.41-.09-.18-.13-.39-.13-.62s.04-.44.13-.62Zm1.44.21c-.1-.1-.22-.15-.36-.15s-.26.05-.36.15c-.1.1-.15.24-.15.41s.05.31.15.42c.1.1.22.15.36.15s.26-.05.36-.15c.1-.1.15-.24.15-.41s-.05-.31-.15-.41Z"/>
  <path class="cls-2" d="m22.28,23.28v3.04h-.7v-3.04h.7Z"/>
  <path class="cls-2" d="m25.27,24.58c.09-.18.22-.32.38-.42.16-.1.33-.15.52-.15.15,0,.28.03.39.08s.21.12.28.21v-.26h.7v3.38h-.7v-1.38c-.08.1-.18.17-.29.23s-.24.09-.39.09c-.19,0-.36-.05-.52-.15s-.29-.24-.38-.41-.14-.38-.14-.61.05-.43.14-.61Zm1.5.29c-.05-.08-.11-.15-.19-.19-.08-.04-.16-.06-.24-.06s-.16.02-.24.06c-.08.04-.14.11-.19.19s-.07.19-.07.31.02.23.07.31c.05.08.11.15.19.19s.16.06.24.06.16-.02.24-.06.14-.11.19-.19c.05-.08.07-.19.07-.31s-.02-.23-.07-.31Z"/>
  <path class="cls-2" d="m30.97,24.01v2.29h-.7v-.31c-.07.1-.17.18-.29.24-.12.06-.26.09-.4.09-.18,0-.33-.04-.46-.12s-.24-.19-.31-.34c-.07-.15-.11-.32-.11-.52v-1.34h.7v1.24c0,.15.04.27.12.36.08.08.19.13.32.13s.24-.04.32-.13c.08-.08.12-.2.12-.36v-1.24h.7Z"/>
  <path class="cls-2" d="m34.28,25.31h-1.59c.01.14.06.25.14.33s.18.11.3.11c.18,0,.3-.07.37-.22h.75c-.04.15-.11.29-.21.41-.1.12-.23.22-.38.28-.15.07-.32.1-.5.1-.22,0-.42-.05-.6-.14-.18-.1-.31-.23-.41-.41s-.15-.39-.15-.62.05-.45.15-.62c.1-.18.23-.31.41-.41.18-.1.38-.14.6-.14s.42.05.59.14c.17.09.31.23.4.4.1.17.15.37.15.6,0,.07,0,.13-.01.21Zm-.71-.39c0-.12-.04-.22-.12-.29-.08-.07-.18-.11-.31-.11s-.22.03-.3.1c-.08.07-.13.17-.15.29h.88Z"/>
  <path class="cls-2" d="m36.3,24.06c.12-.07.26-.1.42-.1.19,0,.36.05.51.14.15.1.27.23.36.41s.13.38.13.62-.04.44-.13.62-.21.32-.36.41c-.15.1-.32.15-.51.15-.16,0-.3-.03-.42-.1s-.21-.15-.28-.26v.32h-.7v-3.04h.7v1.07c.07-.11.16-.19.28-.26Zm.57.66c-.1-.1-.22-.15-.36-.15s-.26.05-.36.15c-.1.1-.15.24-.15.41s.05.31.15.41c.1.1.22.15.36.15s.26-.05.36-.15c.1-.1.15-.24.15-.42s-.05-.31-.15-.41Z"/>
  <path class="cls-2" d="m40.91,25.31h-1.59c.01.14.06.25.14.33s.18.11.3.11c.18,0,.3-.07.37-.22h.75c-.04.15-.11.29-.21.41-.1.12-.23.22-.38.28-.15.07-.32.1-.5.1-.22,0-.42-.05-.6-.14-.18-.1-.31-.23-.41-.41s-.15-.39-.15-.62.05-.45.15-.62c.1-.18.23-.31.41-.41.18-.1.38-.14.6-.14s.42.05.59.14c.17.09.31.23.4.4.1.17.15.37.15.6,0,.07,0,.13-.01.21Zm-.71-.39c0-.12-.04-.22-.12-.29-.08-.07-.18-.11-.31-.11s-.22.03-.3.1c-.08.07-.13.17-.15.29h.88Z"/>
  <path class="cls-2" d="m41.96,24.52c.1-.18.23-.31.41-.41.17-.1.37-.14.6-.14.29,0,.53.08.72.23.19.15.32.36.38.64h-.75c-.06-.18-.18-.26-.37-.26-.13,0-.23.05-.31.15-.08.1-.11.24-.11.43s.04.33.11.43c.08.1.18.15.31.15.18,0,.3-.09.37-.26h.75c-.06.27-.19.48-.38.63-.19.15-.43.23-.72.23-.22,0-.42-.05-.6-.14-.17-.1-.31-.23-.41-.41-.1-.18-.15-.39-.15-.62s.05-.45.15-.62Z"/>
</svg>