<?xml version="1.0" encoding="UTF-8"?>
<svg id="Calque_1" data-name="Calque 1" xmlns="http://www.w3.org/2000/svg" viewBox="0 0 50 50">
  <defs>
    <style>
      .cls-1 {
        fill: #ff6b1a;
      }

      .cls-1, .cls-2 {
        stroke-width: 0px;
      }

      .cls-2 {
        fill: #efdec2;
      }
    </style>
  </defs>
  <g id="Logo_boreal.quebec" data-name="Logo boreal.quebec">
    <path class="cls-1" d="m23.56,25.81c-.08-.08-.13-.17-.13-.29s.04-.22.13-.29c.08-.08.19-.12.32-.12s.24.04.32.12c.08.08.13.18.13.29s-.04.21-.13.29c-.08.08-.19.12-.32.12s-.24-.04-.32-.12Z"/>
    <path class="cls-2" d="m5.59,23.64c.13-.07.28-.11.45-.11.2,0,.39.05.55.15.16.1.29.25.39.44s.14.41.14.66-.05.47-.14.67-.22.34-.39.44c-.16.1-.35.16-.55.16-.17,0-.32-.03-.45-.1s-.23-.16-.3-.27v.34h-.75v-3.25h.75v1.15c.07-.11.17-.21.3-.28Zm.61.71c-.1-.11-.23-.16-.38-.16s-.28.05-.38.16c-.1.11-.16.26-.16.44s.05.34.16.44c.1.11.23.16.38.16s.28-.05.38-.16c.11-.11.16-.26.16-.45s-.05-.33-.16-.44Z"/>
    <path class="cls-2" d="m8.69,25.9c-.19-.1-.34-.25-.45-.44-.11-.19-.16-.41-.16-.67s.06-.47.17-.67c.11-.19.26-.34.46-.44.19-.1.41-.15.65-.15s.46.05.65.15c.19.1.35.25.46.44s.17.41.17.67-.06.47-.17.67-.27.34-.46.44c-.19.1-.41.15-.65.15s-.46-.05-.65-.15Zm1.02-.56c.1-.11.15-.28.15-.49s-.05-.38-.15-.49c-.1-.11-.22-.17-.36-.17s-.27.06-.36.17c-.1.11-.15.28-.15.5s.05.38.14.49c.1.11.21.17.36.17s.27-.06.37-.17Z"/>
    <path class="cls-2" d="m12.81,23.69c.13-.08.28-.12.44-.12v.8h-.21c-.19,0-.33.04-.42.12-.09.08-.14.22-.14.42v1.14h-.75v-2.45h.75v.41c.09-.13.2-.24.33-.32Z"/>
    <path class="cls-2" d="m16.61,24.97h-1.7c.01.15.06.27.15.35s.19.12.32.12c.19,0,.32-.08.39-.24h.8c-.04.16-.11.31-.22.44-.11.13-.24.23-.4.3-.16.07-.34.11-.54.11-.24,0-.45-.05-.64-.15-.19-.1-.33-.25-.44-.44s-.16-.41-.16-.67.05-.48.16-.67c.1-.19.25-.34.44-.44.19-.1.4-.15.65-.15s.45.05.63.15c.18.1.33.24.43.43.1.18.16.4.16.65,0,.07,0,.14-.01.22Zm-.76-.42c0-.13-.04-.23-.13-.31-.09-.08-.2-.11-.33-.11s-.23.04-.32.11c-.09.07-.14.18-.16.31h.94Z"/>
    <path class="cls-2" d="m17.71,24.13c.1-.19.22-.34.39-.44.16-.1.35-.15.55-.15.17,0,.32.04.45.11s.23.16.3.28v-.35h.75v2.45h-.75v-.35c-.07.11-.18.21-.31.28s-.28.11-.45.11c-.2,0-.38-.05-.54-.16-.16-.1-.29-.25-.39-.44-.1-.19-.14-.41-.14-.67s.05-.47.14-.66Zm1.54.22c-.1-.11-.23-.16-.38-.16s-.28.05-.38.16c-.1.11-.16.25-.16.44s.05.34.16.45c.1.11.23.16.38.16s.28-.05.38-.16c.1-.11.16-.26.16-.44s-.05-.34-.16-.44Z"/>
    <path class="cls-2" d="m22.16,22.8v3.25h-.75v-3.25h.75Z"/>
    <path class="cls-2" d="m25.35,24.19c.1-.19.24-.34.41-.45.17-.11.36-.16.56-.16.16,0,.29.03.42.08s.22.13.3.23v-.28h.75v3.62h-.75v-1.48c-.08.1-.19.18-.31.25s-.26.09-.42.09c-.2,0-.38-.05-.55-.16s-.31-.25-.41-.44-.15-.41-.15-.65.05-.46.15-.65Zm1.61.31c-.05-.09-.12-.16-.2-.2-.08-.05-.17-.07-.26-.07s-.17.02-.25.07c-.08.05-.15.11-.2.2s-.08.2-.08.33.03.24.08.33c.05.09.12.16.2.2s.17.07.25.07.17-.02.26-.07.15-.11.2-.2c.05-.09.08-.2.08-.33s-.03-.24-.08-.33Z"/>
    <path class="cls-2" d="m31.45,23.58v2.45h-.75v-.33c-.08.11-.18.2-.31.26-.13.07-.27.1-.43.1-.19,0-.35-.04-.5-.13s-.25-.2-.33-.36c-.08-.16-.12-.34-.12-.56v-1.43h.75v1.33c0,.16.04.29.13.38.08.09.2.14.34.14s.26-.05.35-.14c.08-.09.13-.22.13-.38v-1.33h.75Z"/>
    <path class="cls-2" d="m35,24.97h-1.7c.01.15.06.27.15.35s.19.12.32.12c.19,0,.32-.08.39-.24h.8c-.04.16-.11.31-.22.44-.11.13-.24.23-.4.3-.16.07-.34.11-.54.11-.24,0-.45-.05-.64-.15-.19-.1-.33-.25-.44-.44s-.16-.41-.16-.67.05-.48.16-.67c.1-.19.25-.34.44-.44.19-.1.4-.15.65-.15s.45.05.63.15c.18.1.33.24.43.43.1.18.16.4.16.65,0,.07,0,.14-.01.22Zm-.76-.42c0-.13-.04-.23-.13-.31-.09-.08-.2-.11-.33-.11s-.23.04-.32.11c-.09.07-.14.18-.16.31h.94Z"/>
    <path class="cls-2" d="m37.16,23.64c.13-.07.28-.11.45-.11.2,0,.39.05.55.15.16.1.29.25.39.44s.14.41.14.66-.05.47-.14.67-.22.34-.39.44c-.16.1-.35.16-.55.16-.17,0-.32-.03-.45-.1s-.23-.16-.3-.27v.34h-.75v-3.25h.75v1.15c.07-.11.17-.21.3-.28Zm.61.71c-.1-.11-.23-.16-.38-.16s-.28.05-.38.16c-.1.11-.16.26-.16.44s.05.34.16.44c.1.11.23.16.38.16s.28-.05.38-.16c.11-.11.16-.26.16-.45s-.05-.33-.16-.44Z"/>
    <path class="cls-2" d="m42.09,24.97h-1.7c.01.15.06.27.15.35s.19.12.32.12c.19,0,.32-.08.39-.24h.8c-.04.16-.11.31-.22.44-.11.13-.24.23-.4.3-.16.07-.34.11-.54.11-.24,0-.45-.05-.64-.15-.19-.1-.33-.25-.44-.44s-.16-.41-.16-.67.05-.48.16-.67c.1-.19.25-.34.44-.44.19-.1.4-.15.65-.15s.45.05.63.15c.18.1.33.24.43.43.1.18.16.4.16.65,0,.07,0,.14-.01.22Zm-.76-.42c0-.13-.04-.23-.13-.31-.09-.08-.2-.11-.33-.11s-.23.04-.32.11c-.09.07-.14.18-.16.31h.94Z"/>
    <path class="cls-2" d="m43.21,24.13c.1-.19.25-.34.44-.44.19-.1.4-.15.64-.15.31,0,.56.08.77.24.21.16.34.39.41.68h-.8c-.07-.19-.2-.28-.39-.28-.14,0-.25.05-.33.16-.08.11-.12.26-.12.46s.04.35.12.46c.08.11.19.16.33.16.19,0,.32-.09.39-.28h.8c-.06.29-.2.51-.41.68-.21.16-.46.25-.77.25-.24,0-.45-.05-.64-.15-.19-.1-.33-.25-.44-.44-.1-.19-.16-.41-.16-.67s.05-.48.16-.67Z"/>
  </g>
</svg>