<?xml version="1.0" encoding="UTF-8"?><svg id="Layer_2" xmlns="http://www.w3.org/2000/svg" viewBox="0 0 235.78 25.72"><defs><style>.cls-1{fill:#efdec2;}.cls-2{fill:#ff6b1a;}</style></defs><g id="HOMEPAGE"><g id="HOMEPAGE_-_Desktop"><g id="FOOTER"><g id="Logo_boreal.quebec"><path class="cls-2" d="M109.62,17.51c-.48-.45-.72-1-.72-1.66s.24-1.24,.72-1.7c.48-.46,1.1-.68,1.86-.68s1.35,.23,1.84,.68c.48,.46,.72,1.02,.72,1.7s-.24,1.21-.72,1.66c-.48,.45-1.09,.67-1.84,.67s-1.38-.22-1.86-.67Z"/><path class="cls-1" d="M6.08,5.01c.76-.4,1.63-.61,2.61-.61,1.16,0,2.22,.3,3.16,.89,.95,.59,1.69,1.43,2.24,2.53s.82,2.37,.82,3.82-.28,2.73-.82,3.83c-.55,1.11-1.29,1.96-2.24,2.56-.94,.6-2,.9-3.16,.9-1,0-1.86-.2-2.61-.6-.74-.4-1.32-.92-1.75-1.58v1.97H0V0H4.33V6.61c.4-.66,.99-1.19,1.75-1.59Zm3.53,4.09c-.6-.62-1.34-.92-2.21-.92s-1.59,.31-2.19,.94c-.6,.62-.9,1.48-.9,2.56s.3,1.93,.9,2.56c.6,.63,1.33,.94,2.19,.94s1.59-.32,2.2-.95c.61-.63,.91-1.49,.91-2.57s-.3-1.93-.9-2.54Z"/><path class="cls-1" d="M23.93,18.05c-1.11-.59-1.97-1.43-2.61-2.53-.63-1.1-.95-2.38-.95-3.85s.32-2.73,.96-3.83c.64-1.11,1.52-1.95,2.63-2.54,1.11-.59,2.36-.89,3.75-.89s2.63,.3,3.75,.89c1.11,.59,1.99,1.44,2.63,2.54s.96,2.38,.96,3.83-.32,2.73-.97,3.84-1.54,1.95-2.66,2.54c-1.12,.59-2.38,.89-3.76,.89s-2.63-.3-3.73-.89Zm5.85-3.22c.58-.66,.87-1.61,.87-2.84s-.28-2.18-.85-2.84c-.57-.66-1.26-.99-2.09-.99s-1.54,.33-2.1,.98c-.56,.65-.84,1.6-.84,2.85s.27,2.18,.82,2.84c.55,.66,1.24,.99,2.06,.99s1.53-.33,2.11-.99Z"/><path class="cls-1" d="M47.64,5.33c.76-.45,1.6-.67,2.53-.67v4.58h-1.19c-1.08,0-1.89,.23-2.43,.7-.54,.46-.81,1.28-.81,2.44v6.56h-4.33V4.81h4.33v2.35c.51-.78,1.14-1.39,1.9-1.84Z"/><path class="cls-1" d="M69.54,12.71h-9.8c.07,.88,.35,1.55,.85,2.01s1.11,.7,1.84,.7c1.08,0,1.83-.46,2.25-1.37h4.61c-.24,.93-.66,1.76-1.28,2.51-.62,.74-1.39,1.33-2.32,1.75-.93,.42-1.97,.63-3.11,.63-1.38,0-2.62-.3-3.7-.89-1.08-.59-1.92-1.43-2.53-2.53-.61-1.1-.91-2.38-.91-3.85s.3-2.75,.9-3.85c.6-1.1,1.44-1.94,2.52-2.53,1.08-.59,2.32-.89,3.72-.89s2.58,.29,3.65,.86c1.06,.57,1.89,1.39,2.49,2.45,.6,1.06,.9,2.3,.9,3.72,0,.4-.03,.83-.08,1.27Zm-4.35-2.41c0-.74-.25-1.33-.76-1.77-.51-.44-1.14-.66-1.9-.66s-1.34,.21-1.83,.63c-.5,.42-.81,1.02-.92,1.8h5.42Z"/><path class="cls-1" d="M75.91,7.82c.55-1.1,1.29-1.94,2.24-2.53,.94-.59,2-.89,3.16-.89,1,0,1.87,.2,2.62,.61,.75,.4,1.33,.94,1.73,1.59v-2h4.33v14.13h-4.33v-2c-.42,.66-1.01,1.19-1.76,1.6s-1.62,.61-2.62,.61c-1.15,0-2.19-.3-3.14-.9-.95-.6-1.69-1.45-2.24-2.56-.55-1.11-.82-2.38-.82-3.83s.27-2.73,.82-3.82Zm8.86,1.29c-.6-.62-1.33-.94-2.19-.94s-1.59,.31-2.19,.92c-.6,.62-.9,1.46-.9,2.54s.3,1.94,.9,2.57c.6,.63,1.33,.95,2.19,.95s1.59-.31,2.19-.94c.6-.62,.9-1.48,.9-2.56s-.3-1.93-.9-2.56Z"/><path class="cls-1" d="M101.51,.2V18.94h-4.33V.2h4.33Z"/><path class="cls-1" d="M119.9,8.21c.58-1.1,1.37-1.95,2.35-2.57,.99-.62,2.06-.92,3.23-.92,.89,0,1.7,.16,2.41,.47,.71,.31,1.28,.75,1.72,1.3v-1.62h4.33V25.72h-4.33v-8.51c-.49,.59-1.08,1.06-1.79,1.42-.7,.35-1.5,.53-2.39,.53-1.15,0-2.21-.3-3.19-.91-.98-.61-1.76-1.46-2.34-2.56s-.87-2.35-.87-3.75,.29-2.65,.87-3.75Zm9.27,1.81c-.3-.52-.68-.9-1.15-1.16-.47-.26-.97-.39-1.49-.39s-1,.13-1.47,.39c-.47,.26-.86,.65-1.16,1.18s-.46,1.16-.46,1.92,.15,1.4,.46,1.91c.3,.52,.69,.9,1.16,1.16s.96,.39,1.47,.39,1-.13,1.48-.39,.87-.65,1.16-1.18c.29-.52,.44-1.16,.44-1.92s-.15-1.4-.44-1.91Z"/><path class="cls-1" d="M155.08,4.66v14.13h-4.33v-1.92c-.44,.63-1.03,1.13-1.79,1.51-.75,.38-1.58,.57-2.49,.57-1.08,0-2.03-.24-2.86-.72s-1.47-1.18-1.92-2.09c-.46-.91-.68-1.98-.68-3.22V4.66h4.3v7.67c0,.95,.24,1.68,.73,2.2,.49,.52,1.15,.78,1.97,.78s1.51-.26,2-.78c.49-.52,.73-1.26,.73-2.2V4.66h4.33Z"/><path class="cls-1" d="M175.48,12.71h-9.8c.07,.88,.35,1.55,.85,2.01s1.11,.7,1.84,.7c1.08,0,1.83-.46,2.25-1.37h4.61c-.24,.93-.66,1.76-1.28,2.51-.62,.74-1.39,1.33-2.32,1.75-.93,.42-1.97,.63-3.11,.63-1.38,0-2.62-.3-3.7-.89-1.08-.59-1.92-1.43-2.53-2.53-.61-1.1-.91-2.38-.91-3.85s.3-2.75,.9-3.85c.6-1.1,1.44-1.94,2.52-2.53,1.08-.59,2.32-.89,3.72-.89s2.58,.29,3.65,.86c1.06,.57,1.89,1.39,2.49,2.45,.6,1.06,.9,2.3,.9,3.72,0,.4-.03,.83-.08,1.27Zm-4.35-2.41c0-.74-.25-1.33-.76-1.77-.51-.44-1.14-.66-1.9-.66s-1.34,.21-1.83,.63c-.5,.42-.81,1.02-.92,1.8h5.42Z"/><path class="cls-1" d="M187.96,5.01c.76-.4,1.63-.61,2.61-.61,1.16,0,2.22,.3,3.16,.89,.95,.59,1.69,1.43,2.24,2.53s.82,2.37,.82,3.82-.28,2.73-.82,3.83c-.55,1.11-1.29,1.96-2.24,2.56-.94,.6-2,.9-3.16,.9-1,0-1.86-.2-2.61-.6-.74-.4-1.32-.92-1.75-1.58v1.97h-4.33V0h4.33V6.61c.4-.66,.99-1.19,1.75-1.59Zm3.53,4.09c-.6-.62-1.34-.92-2.21-.92s-1.59,.31-2.19,.94c-.6,.62-.9,1.48-.9,2.56s.3,1.93,.9,2.56c.6,.63,1.33,.94,2.19,.94s1.59-.32,2.2-.95c.61-.63,.91-1.49,.91-2.57s-.3-1.93-.9-2.54Z"/><path class="cls-1" d="M216.36,12.71h-9.8c.07,.88,.35,1.55,.85,2.01s1.11,.7,1.84,.7c1.08,0,1.83-.46,2.25-1.37h4.61c-.24,.93-.66,1.76-1.28,2.51-.62,.74-1.39,1.33-2.32,1.75-.93,.42-1.97,.63-3.11,.63-1.38,0-2.62-.3-3.7-.89-1.08-.59-1.92-1.43-2.53-2.53-.61-1.1-.91-2.38-.91-3.85s.3-2.75,.9-3.85c.6-1.1,1.44-1.94,2.52-2.53,1.08-.59,2.32-.89,3.72-.89s2.58,.29,3.65,.86c1.06,.57,1.89,1.39,2.49,2.45,.6,1.06,.9,2.3,.9,3.72,0,.4-.03,.83-.08,1.27Zm-4.35-2.41c0-.74-.25-1.33-.76-1.77-.51-.44-1.14-.66-1.9-.66s-1.34,.21-1.83,.63c-.5,.42-.81,1.02-.92,1.8h5.42Z"/><path class="cls-1" d="M222.81,7.82c.6-1.1,1.43-1.94,2.51-2.53,1.07-.59,2.3-.89,3.68-.89,1.77,0,3.25,.46,4.44,1.39,1.19,.93,1.97,2.24,2.34,3.92h-4.61c-.39-1.08-1.14-1.62-2.25-1.62-.79,0-1.43,.31-1.9,.92-.47,.62-.71,1.5-.71,2.65s.24,2.03,.71,2.65c.47,.62,1.11,.92,1.9,.92,1.11,0,1.86-.54,2.25-1.62h4.61c-.37,1.65-1.16,2.95-2.35,3.9-1.2,.95-2.68,1.42-4.43,1.42-1.38,0-2.61-.3-3.68-.89-1.07-.59-1.91-1.43-2.51-2.53-.6-1.1-.9-2.38-.9-3.85s.3-2.75,.9-3.85Z"/></g></g></g></g><g id="MAIN_MENU"><g id="Barre_menu"><g id="Barre_de_menu_Desktop"><text/></g></g></g></svg>