<?xml version="1.0" encoding="UTF-8"?>
<svg id="Calque_1" data-name="Calque 1" xmlns="http://www.w3.org/2000/svg" viewBox="0 0 50 50">
  <defs>
    <style>
      .cls-1 {
        fill: #ff6b1a;
        stroke-width: 0px;
      }
    </style>
  </defs>
  <path class="cls-1" d="m26.01,24.01c-1.14,0-2.06-.93-2.06-2.06s.93-2.06,2.06-2.06,2.06.93,2.06,2.06-.93,2.06-2.06,2.06Zm0-3.76c-.94,0-1.7.76-1.7,1.7s.76,1.7,1.7,1.7,1.7-.76,1.7-1.7-.76-1.7-1.7-1.7Z"/>
  <path class="cls-1" d="m26.01,29.66c-2.12,0-3.84-1.13-3.84-2.52s1.72-2.52,3.84-2.52,3.84,1.13,3.84,2.52-1.72,2.52-3.84,2.52Zm0-4.67c-1.91,0-3.47.97-3.47,2.15s1.56,2.15,3.47,2.15,3.47-.97,3.47-2.15-1.56-2.15-3.47-2.15Z"/>
</svg>