<?xml version="1.0" encoding="UTF-8"?>
<svg id="Calque_1" data-name="Calque 1" xmlns="http://www.w3.org/2000/svg" viewBox="0 0 50 50">
  <defs>
    <style>
      .cls-1 {
        fill: none;
        stroke: #ff6b1a;
        stroke-linecap: round;
        stroke-linejoin: round;
        stroke-width: 1.12px;
      }
    </style>
  </defs>
  <path class="cls-1" d="m25,20.6c-.04-.11-.08-.19-.11-.27-.16-.45-.44-.82-.8-1.13-.92-.79-2-1.11-3.18-.98-1.89.22-3.47,1.89-3.62,4-.06.81.16,1.56.48,2.29.44.98,1.04,1.86,1.72,2.68,1.58,1.91,3.45,3.51,5.43,4.96.06.05.1.03.16,0,.46-.36.94-.7,1.4-1.07,1.46-1.17,2.83-2.43,4.02-3.88.71-.87,1.35-1.79,1.79-2.84.39-.94.56-1.9.3-2.92-.71-2.75-3.68-4.21-6.26-2.57-.58.37-1.02.86-1.25,1.54-.02.05-.04.1-.07.18Z"/>
</svg>