<?xml version="1.0" encoding="UTF-8"?>
<svg id="Calque_1" data-name="Calque 1" xmlns="http://www.w3.org/2000/svg" viewBox="0 0 50 50">
  <defs>
    <style>
      .cls-1 {
        fill: #ff6b1a;
        stroke-width: 0px;
      }
    </style>
  </defs>
  <path class="cls-1" d="m34,21.33c.03,1.26-.36,2.36-1.22,3.27-1.2,1.26-3.91,3.99-5.13,5.24-.32.33-.69.49-1.05.11-.36-.37-.21-.73.12-1.06,1.17-1.18,3.82-3.86,4.97-5.05.91-.95,1.22-2.1.83-3.36-.39-1.26-1.27-2.06-2.57-2.32-1.17-.24-2.22.09-3.06.94-2.35,2.37-6.18,6.26-8.51,8.65-1.04,1.06-1.03,2.59-.03,3.53.99.93,2.47.88,3.49-.15,2.31-2.33,6.09-6.17,8.39-8.52.6-.61.62-1.51.05-2.06-.56-.55-1.45-.53-2.06.09-1.06,1.06-3.58,3.64-4.63,4.7-.13.13-.24.28-.39.39-.31.24-.7.29-.91-.04-.13-.21-.16-.7-.02-.85,1.28-1.36,4.03-4.23,5.42-5.47,1.06-.94,2.74-.69,3.67.37.93,1.06.92,2.66-.09,3.71-2.35,2.43-6.19,6.35-8.61,8.72-.48.47-1.18.8-1.83.99-1.53.43-3.13-.28-3.98-1.64-.85-1.36-.79-3.17.3-4.35,1.41-1.54,4.38-4.5,5.84-5.99.99-1.01,1.97-2.04,2.99-3.03,1.33-1.28,2.91-1.72,4.7-1.18,1.71.52,2.76,1.69,3.23,3.4.03.1.05.2.06.3.03.22.04.44.06.67Z"/>
</svg>