<?xml version="1.0" encoding="UTF-8"?><svg id="Layer_2" xmlns="http://www.w3.org/2000/svg" viewBox="0 0 568.18 63.58"><defs><style>.cls-1{fill:#ff6b1a;}.cls-2{fill:#006663;}</style></defs><g id="Layer_1-2"><g id="Logo_boreal.quebec"><path class="cls-1" d="M264.15,43.27c-1.16-1.1-1.74-2.47-1.74-4.1s.58-3.07,1.74-4.19c1.16-1.13,2.66-1.69,4.49-1.69s3.26,.57,4.42,1.69c1.16,1.13,1.74,2.53,1.74,4.19s-.58,2.99-1.74,4.1c-1.16,1.11-2.63,1.66-4.42,1.66s-3.33-.55-4.49-1.66Z"/><path class="cls-2" d="M14.64,12.39c1.83-1,3.92-1.5,6.28-1.5,2.81,0,5.35,.73,7.63,2.19,2.28,1.46,4.08,3.55,5.4,6.26,1.32,2.71,1.98,5.86,1.98,9.45s-.66,6.75-1.98,9.48c-1.32,2.73-3.12,4.84-5.4,6.32-2.28,1.48-4.82,2.22-7.63,2.22-2.4,0-4.49-.49-6.28-1.47-1.79-.98-3.19-2.28-4.21-3.91v4.88H0V0H10.43V16.33c.98-1.63,2.38-2.94,4.21-3.94Zm8.51,10.11c-1.44-1.52-3.22-2.28-5.34-2.28s-3.84,.77-5.28,2.31c-1.44,1.54-2.16,3.65-2.16,6.32s.72,4.78,2.16,6.32c1.44,1.55,3.2,2.32,5.28,2.32s3.84-.78,5.31-2.35c1.46-1.56,2.2-3.68,2.2-6.35s-.72-4.77-2.17-6.29Z"/><path class="cls-2" d="M57.68,44.61c-2.66-1.46-4.76-3.54-6.28-6.26-1.53-2.71-2.29-5.88-2.29-9.51s.77-6.75,2.32-9.48c1.54-2.73,3.66-4.83,6.34-6.29,2.68-1.46,5.69-2.19,9.03-2.19s6.34,.73,9.03,2.19c2.69,1.46,4.8,3.56,6.34,6.29,1.55,2.73,2.32,5.89,2.32,9.48s-.78,6.75-2.35,9.48c-1.57,2.73-3.7,4.83-6.4,6.29-2.71,1.46-5.73,2.19-9.06,2.19s-6.33-.73-9-2.19Zm14.09-7.97c1.4-1.64,2.1-3.98,2.1-7.02s-.68-5.38-2.04-7.02c-1.36-1.64-3.04-2.45-5.03-2.45s-3.72,.81-5.06,2.42c-1.34,1.61-2.01,3.96-2.01,7.05s.66,5.39,1.98,7.02c1.32,1.63,2.98,2.45,4.97,2.45s3.69-.82,5.09-2.45Z"/><path class="cls-2" d="M114.81,13.17c1.83-1.1,3.86-1.66,6.1-1.66v11.32h-2.87c-2.6,0-4.55,.58-5.86,1.72-1.3,1.15-1.95,3.16-1.95,6.04v16.21h-10.43V11.89h10.43v5.82c1.22-1.92,2.75-3.43,4.57-4.54Z"/><path class="cls-2" d="M167.57,31.41h-23.61c.16,2.17,.84,3.83,2.04,4.97,1.2,1.15,2.67,1.72,4.42,1.72,2.6,0,4.41-1.13,5.43-3.38h11.1c-.57,2.3-1.6,4.36-3.08,6.19-1.48,1.84-3.35,3.28-5.58,4.32-2.24,1.04-4.74,1.57-7.5,1.57-3.34,0-6.3-.73-8.91-2.19-2.6-1.46-4.63-3.54-6.1-6.26-1.46-2.71-2.2-5.88-2.2-9.51s.72-6.8,2.17-9.51c1.44-2.71,3.47-4.8,6.07-6.26,2.6-1.46,5.59-2.19,8.97-2.19s6.22,.71,8.78,2.13c2.56,1.42,4.56,3.44,6.01,6.07,1.44,2.63,2.17,5.7,2.17,9.2,0,1-.06,2.04-.18,3.13Zm-10.49-5.94c0-1.84-.61-3.29-1.83-4.38-1.22-1.08-2.75-1.63-4.58-1.63s-3.22,.52-4.42,1.56c-1.2,1.04-1.94,2.53-2.23,4.44h13.05Z"/><path class="cls-2" d="M182.92,19.33c1.32-2.71,3.12-4.8,5.4-6.26,2.28-1.46,4.82-2.19,7.63-2.19,2.4,0,4.5,.5,6.31,1.5,1.81,1,3.2,2.31,4.18,3.94v-4.94h10.43V46.3h-10.43v-4.94c-1.02,1.63-2.43,2.94-4.24,3.94s-3.91,1.5-6.31,1.5c-2.77,0-5.29-.74-7.56-2.22-2.28-1.48-4.08-3.59-5.4-6.32-1.32-2.73-1.98-5.89-1.98-9.48s.66-6.74,1.98-9.45Zm21.35,3.19c-1.44-1.54-3.2-2.31-5.27-2.31s-3.84,.76-5.28,2.28c-1.44,1.52-2.17,3.62-2.17,6.29s.72,4.79,2.17,6.35c1.44,1.57,3.2,2.35,5.28,2.35s3.83-.77,5.27-2.32c1.44-1.54,2.17-3.65,2.17-6.32s-.72-4.78-2.17-6.32Z"/><path class="cls-2" d="M244.62,.5V46.8h-10.43V.5h10.43Z"/><path class="cls-2" d="M288.94,20.28c1.4-2.71,3.29-4.83,5.67-6.35,2.38-1.52,4.97-2.28,7.78-2.28,2.15,0,4.09,.39,5.8,1.16,1.71,.77,3.09,1.85,4.15,3.22v-4h10.43V63.58h-10.43v-21.02c-1.18,1.46-2.61,2.63-4.3,3.5-1.69,.88-3.61,1.31-5.76,1.31-2.77,0-5.33-.75-7.69-2.25-2.36-1.5-4.24-3.61-5.64-6.32-1.4-2.71-2.1-5.8-2.1-9.26s.7-6.55,2.1-9.26Zm22.33,4.47c-.71-1.27-1.64-2.23-2.78-2.88-1.14-.65-2.34-.97-3.6-.97s-2.4,.32-3.54,.97c-1.14,.65-2.07,1.62-2.8,2.91s-1.1,2.88-1.1,4.76,.37,3.45,1.1,4.72c.73,1.27,1.67,2.23,2.8,2.88,1.14,.65,2.32,.97,3.54,.97s2.41-.32,3.57-.97c1.16-.65,2.1-1.62,2.81-2.91,.71-1.29,1.07-2.88,1.07-4.76s-.36-3.45-1.07-4.72Z"/><path class="cls-2" d="M373.7,11.52V46.43h-10.43v-4.76c-1.06,1.55-2.49,2.79-4.3,3.72-1.81,.94-3.81,1.41-6.01,1.41-2.6,0-4.9-.59-6.89-1.78-1.99-1.19-3.54-2.91-4.64-5.16-1.1-2.25-1.65-4.9-1.65-7.95V11.52h10.37V30.47c0,2.34,.59,4.15,1.77,5.44,1.18,1.29,2.77,1.94,4.76,1.94s3.64-.65,4.82-1.94c1.18-1.29,1.77-3.11,1.77-5.44V11.52h10.43Z"/><path class="cls-2" d="M422.87,31.41h-23.61c.16,2.17,.84,3.83,2.04,4.97,1.2,1.15,2.67,1.72,4.42,1.72,2.6,0,4.41-1.13,5.43-3.38h11.1c-.57,2.3-1.6,4.36-3.08,6.19-1.48,1.84-3.35,3.28-5.58,4.32-2.24,1.04-4.74,1.57-7.5,1.57-3.34,0-6.3-.73-8.91-2.19-2.6-1.46-4.63-3.54-6.1-6.26-1.46-2.71-2.2-5.88-2.2-9.51s.72-6.8,2.17-9.51c1.44-2.71,3.47-4.8,6.07-6.26,2.6-1.46,5.59-2.19,8.97-2.19s6.22,.71,8.78,2.13c2.56,1.42,4.56,3.44,6.01,6.07,1.44,2.63,2.17,5.7,2.17,9.2,0,1-.06,2.04-.18,3.13Zm-10.49-5.94c0-1.84-.61-3.29-1.83-4.38-1.22-1.08-2.75-1.63-4.58-1.63s-3.22,.52-4.42,1.56c-1.2,1.04-1.94,2.53-2.23,4.44h13.05Z"/><path class="cls-2" d="M452.95,12.39c1.83-1,3.92-1.5,6.28-1.5,2.81,0,5.35,.73,7.63,2.19,2.28,1.46,4.08,3.55,5.4,6.26,1.32,2.71,1.98,5.86,1.98,9.45s-.66,6.75-1.98,9.48c-1.32,2.73-3.12,4.84-5.4,6.32-2.28,1.48-4.82,2.22-7.63,2.22-2.4,0-4.49-.49-6.28-1.47-1.79-.98-3.19-2.28-4.21-3.91v4.88h-10.43V0h10.43V16.33c.98-1.63,2.38-2.94,4.21-3.94Zm8.51,10.11c-1.44-1.52-3.22-2.28-5.34-2.28s-3.84,.77-5.28,2.31c-1.44,1.54-2.16,3.65-2.16,6.32s.72,4.78,2.16,6.32c1.44,1.55,3.2,2.32,5.28,2.32s3.84-.78,5.31-2.35c1.46-1.56,2.2-3.68,2.2-6.35s-.72-4.77-2.17-6.29Z"/><path class="cls-2" d="M521.39,31.41h-23.61c.16,2.17,.84,3.83,2.04,4.97,1.2,1.15,2.67,1.72,4.42,1.72,2.6,0,4.41-1.13,5.43-3.38h11.1c-.57,2.3-1.6,4.36-3.08,6.19-1.48,1.84-3.35,3.28-5.58,4.32-2.24,1.04-4.74,1.57-7.5,1.57-3.34,0-6.3-.73-8.91-2.19-2.6-1.46-4.63-3.54-6.1-6.26-1.46-2.71-2.2-5.88-2.2-9.51s.72-6.8,2.17-9.51c1.44-2.71,3.47-4.8,6.07-6.26,2.6-1.46,5.59-2.19,8.97-2.19s6.22,.71,8.78,2.13c2.56,1.42,4.56,3.44,6.01,6.07,1.44,2.63,2.17,5.7,2.17,9.2,0,1-.06,2.04-.18,3.13Zm-10.49-5.94c0-1.84-.61-3.29-1.83-4.38-1.22-1.08-2.75-1.63-4.58-1.63s-3.22,.52-4.42,1.56c-1.2,1.04-1.94,2.53-2.23,4.44h13.05Z"/><path class="cls-2" d="M536.92,19.33c1.44-2.71,3.46-4.8,6.04-6.26,2.58-1.46,5.54-2.19,8.87-2.19,4.27,0,7.84,1.15,10.71,3.44,2.87,2.29,4.75,5.53,5.64,9.7h-11.1c-.94-2.67-2.75-4-5.43-4-1.91,0-3.44,.76-4.58,2.28-1.14,1.52-1.71,3.7-1.71,6.54s.57,5.02,1.71,6.54c1.14,1.53,2.66,2.29,4.58,2.29,2.68,0,4.49-1.34,5.43-4h11.1c-.9,4.09-2.79,7.3-5.67,9.63-2.89,2.34-6.45,3.51-10.68,3.51-3.33,0-6.29-.73-8.87-2.19-2.58-1.46-4.6-3.54-6.04-6.26-1.44-2.71-2.17-5.88-2.17-9.51s.72-6.8,2.17-9.51Z"/></g></g></svg>