<?xml version="1.0" encoding="UTF-8"?>
<svg id="Layer_2" data-name="Layer 2" xmlns="http://www.w3.org/2000/svg" viewBox="0 0 46.37 47.01">
  <defs>
    <style>
      .cls-1 {
        fill: #ffb68f;
        stroke-width: 0px;
      }
    </style>
  </defs>
  <g id="BOREAL_HOME_PAGE" data-name="BOREAL HOME PAGE">
    <g id="_360px_x_640px" data-name="360px x 640px">
      <g id="_4_x_Boutons" data-name="4 x Boutons">
        <g>
          <path class="cls-1" d="m45.88,30.56h-11.99c-.27,0-.49.22-.49.49v3.25h-11.5c-.27,0-.49.22-.49.49v2.65h-11.5c-.27,0-.49.22-.49.49v8.07H.49c-.27,0-.49.22-.49.49s.22.49.49.49h45.38c.27,0,.49-.22.49-.49v-15.45c0-.27-.22-.49-.49-.49Zm-11.5.99h11v14.46h-11v-14.46Zm-11.99,3.74h11v10.72h-11v-10.72Zm-11.99,3.15h11v7.57h-11v-7.57Z"/>
          <path class="cls-1" d="m23.53,21.46l.03.02c.66.4,1.51.24,1.98-.37l1.95-2.56c.27-.36.63-.63,1.05-.8l.45-.18.16,5.89-5.33,8.2c-.42.65-.29,1.51.32,2l.36.29c.27.22.6.33.94.33.06,0,.12,0,.18-.01.4-.05.76-.25,1.01-.57l4.2-5.41c.04-.06.08-.11.12-.17l2.19-3.62,2.46.93c.33.12.63.33.86.6l2.99,3.47c.51.59,1.41.7,2.04.23l.2-.15c.33-.24.54-.6.6-1,.06-.4-.05-.8-.29-1.13l-3.43-4.51c-.35-.45-.81-.8-1.34-1.01l-2.85-1.11v-3.54l3.06-.39c.7-.09,1.36-.42,1.85-.93l1.26-1.31v2.46c0,.27.22.49.49.49s.49-.22.49-.49v-3.49l.93-.97c.56-.59.55-1.53-.02-2.11-.25-.25-.58-.4-.91-.43V.49c0-.27-.22-.49-.49-.49s-.49.22-.49.49v.15l-5.99,1.8c-.2.06-.35.25-.35.46,0,.21.13.41.33.48l6.02,2.17v4.79c-.08.05-.15.11-.22.17l-2.18,2.13c-.4.39-.92.6-1.48.6h-5.51c-.62,0-1.23.12-1.81.37l-2.6,1.1c-.65.27-1.19.73-1.57,1.32l-2.13,3.33c-.22.34-.29.75-.2,1.15.09.4.33.73.68.95ZM36.27,2.96l4.27-1.28v2.83l-4.27-1.54Zm-12.39,16.93l2.13-3.33c.27-.42.66-.75,1.12-.94l2.6-1.1c.45-.19.93-.29,1.42-.29h5.51c.81,0,1.58-.31,2.17-.88l2.18-2.13c.2-.2.53-.19.73,0,.2.2.2.52,0,.72l-1.06,1.1s0,0,0,0l-2.11,2.2c-.33.35-.78.57-1.26.63l-3.49.45c-.25.03-.43.24-.43.49v4.31c0,.2.13.39.31.46l3.16,1.23c.36.14.68.38.91.69l3.43,4.51c.08.11.12.25.1.39s-.09.26-.21.34l-.2.15c-.22.16-.52.12-.7-.08l-2.99-3.47c-.34-.39-.77-.7-1.26-.88l-2.85-1.08c-.22-.08-.47,0-.6.21l-2.4,3.97s-.03.05-.05.08l-4.2,5.41c-.09.11-.21.18-.35.2-.14.02-.27-.02-.38-.11l-.36-.29c-.21-.17-.26-.46-.11-.69l5.41-8.33c.05-.08.08-.18.08-.28l-.19-6.75c0-.16-.09-.31-.22-.4-.08-.05-.18-.08-.27-.08-.06,0-.12.01-.18.04l-1.11.45c-.58.23-1.09.62-1.47,1.12l-1.95,2.56c-.16.21-.45.27-.68.13l-.03-.02c-.12-.07-.2-.19-.23-.33-.03-.14,0-.28.07-.39Z"/>
          <path class="cls-1" d="m32.85,13.02c1.62,0,2.93-1.32,2.93-2.93s-1.32-2.93-2.93-2.93-2.93,1.32-2.93,2.93,1.32,2.93,2.93,2.93Zm0-4.88c1.07,0,1.94.87,1.94,1.94s-.87,1.94-1.94,1.94-1.94-.87-1.94-1.94.87-1.94,1.94-1.94Z"/>
        </g>
      </g>
    </g>
  </g>
</svg>