<?xml version="1.0" encoding="UTF-8"?>
<svg id="Layer_2" data-name="Layer 2" xmlns="http://www.w3.org/2000/svg" viewBox="0 0 82.74 92.47">
  <defs>
    <style>
      .cls-1 {
        fill: #daa182;
        stroke-width: 0px;
      }
    </style>
  </defs>
  <g id="BOREAL_HOME_PAGE" data-name="BOREAL HOME PAGE">
    <g id="_768px_x_1024px" data-name="768px x 1024px">
      <g id="_4_x_Boutons" data-name="4 x Boutons">
        <g>
          <path class="cls-1" d="m22.92,48.06l12.22,3.03,4.43,11.79c.13.34.44.59.81.62.21.02.41-.03.58-.13.13-.08.25-.19.33-.32l6.03-9.67,22.58,38.61c.27.46.86.62,1.32.35s.62-.86.35-1.32l-22.63-38.69,11.59-.52c.37-.02.69-.24.84-.58.15-.34.09-.73-.15-1.01l-8.1-9.64,3.35-12.14c.1-.36-.01-.74-.29-.98-.28-.24-.67-.31-1.01-.17l-11.67,4.73-10.51-6.93c-.31-.2-.7-.21-1.02-.03s-.5.54-.48.9l.89,12.56-9.84,7.85c-.29.23-.42.6-.34.96.08.36.35.64.71.73Zm2.37-1.41l8.71-6.95c.25-.2.38-.51.36-.82l-.79-11.11,9.3,6.13c.27.18.6.21.9.09l10.32-4.18-2.96,10.74c-.08.31-.01.64.19.88l7.17,8.53-11.13.5c-.16,0-.31.05-.44.13s-.25.19-.33.32l-5.89,9.45-3.92-10.43c-.11-.3-.36-.52-.67-.6l-10.81-2.68Z"/>
          <path class="cls-1" d="m24.56,12.87c-.46.27-1.05.11-1.32-.35l-3.2-5.48c-.27-.46-.11-1.05.35-1.32s1.05-.11,1.32.35l3.2,5.48c.27.46.11,1.05-.35,1.32Z"/>
          <path class="cls-1" d="m29.29,20.96c-.46.27-1.05.11-1.32-.35l-2.72-4.65c-.27-.46-.11-1.05.35-1.32s1.05-.11,1.32.35l2.72,4.65c.27.46.11,1.05-.35,1.32Z"/>
          <path class="cls-1" d="m68.69,25.25c-.27-.46-.11-1.05.35-1.32l6.66-3.89c.46-.27,1.05-.11,1.32.35s.11,1.05-.35,1.32l-6.66,3.89c-.46.27-1.05.11-1.32-.35Z"/>
          <path class="cls-1" d="m61.77,29.29c-.27-.46-.11-1.05.35-1.32l3.18-1.86c.46-.27,1.05-.11,1.32.35s.11,1.05-.35,1.32l-3.18,1.86c-.46.27-1.05.11-1.32-.35Z"/>
          <path class="cls-1" d="m20.62,54.77l-6.79,3.97c-.46.27-1.05.11-1.32-.35s-.11-1.05.35-1.32l6.79-3.97c.46-.27,1.05-.11,1.32.35s.11,1.05-.35,1.32Z"/>
          <path class="cls-1" d="m6.07,61.04l3.39-1.98c.46-.27,1.05-.11,1.32.35s.11,1.05-.35,1.32l-3.39,1.98c-.46.27-1.05.11-1.32-.35s-.11-1.05.35-1.32Z"/>
          <path class="cls-1" d="m76.31,40.08l5.45-.03c.53,0,.97.43.97.96,0,.36-.19.67-.48.84-.14.08-.31.13-.48.13l-5.45.03c-.53,0-.97-.43-.97-.96,0-.53.43-.97.96-.97Z"/>
          <path class="cls-1" d="m58.17,41.15c0-.53.43-.97.96-.97l12.62-.07c.53,0,.97.43.97.96,0,.36-.19.67-.48.84-.14.08-.31.13-.48.13l-12.62.07c-.53,0-.97-.43-.97-.96Z"/>
          <path class="cls-1" d="m17.66,41.62c0,.36-.19.67-.48.84-.14.08-.31.13-.48.13l-3.85.02c-.53,0-.97-.43-.97-.96,0-.53.43-.97.96-.97l3.85-.02c.53,0,.97.43.97.96Z"/>
          <path class="cls-1" d="m9.81,42.51c-.14.08-.31.13-.48.13l-8.35.05c-.53,0-.97-.43-.97-.96,0-.53.43-.97.96-.97l8.35-.05c.53,0,.97.43.97.96,0,.36-.19.67-.48.84Z"/>
          <path class="cls-1" d="m42.11,23.65c0,.36-.19.67-.48.84-.14.08-.31.13-.48.13-.53,0-.97-.43-.97-.96l-.03-4.88c0-.53.43-.97.96-.97.53,0,.97.43.97.96l.03,4.88Z"/>
          <path class="cls-1" d="m42.06,13.86c0,.36-.19.67-.48.84-.14.08-.31.13-.48.13-.53,0-.97-.43-.97-.96l-.07-12.89c0-.53.43-.97.96-.97.53,0,.97.43.97.96l.07,12.89Z"/>
          <path class="cls-1" d="m20.63,76.05l5.81-10.2c.26-.46.86-.63,1.32-.36.46.26.63.86.36,1.32l-5.81,10.2c-.09.15-.21.27-.35.36-.29.17-.66.18-.97,0-.46-.26-.63-.86-.36-1.32Z"/>
          <path class="cls-1" d="m28.61,62.04l3.64-6.39c.26-.46.86-.63,1.32-.36.46.26.63.86.36,1.32l-3.64,6.39c-.09.15-.21.27-.35.36-.29.17-.66.18-.97,0-.46-.26-.63-.86-.36-1.32Z"/>
          <path class="cls-1" d="m59.35,11.53l-5.03,8.82c-.09.15-.21.27-.35.36-.29.17-.66.18-.97,0-.46-.26-.63-.86-.36-1.32l5.03-8.82c.26-.46.86-.63,1.32-.36.46.26.63.86.36,1.32Z"/>
          <path class="cls-1" d="m62.11,6.68l-1,1.75c-.09.15-.21.27-.35.36-.29.17-.66.18-.97,0-.46-.26-.63-.86-.36-1.32l1-1.75c.26-.46.86-.63,1.32-.36.46.26.63.86.36,1.32Z"/>
          <path class="cls-1" d="m12.53,25.07c-.09.15-.21.27-.35.36-.29.17-.66.18-.97,0l-5.48-3.12c-.46-.26-.63-.86-.36-1.32.26-.46.86-.63,1.32-.36l5.48,3.12c.46.26.63.86.36,1.32Z"/>
          <path class="cls-1" d="m27.71,33.73c-.09.15-.21.27-.35.36-.29.17-.66.18-.97,0l-10.74-6.12c-.46-.26-.63-.86-.36-1.32.26-.46.86-.63,1.32-.36l10.74,6.12c.46.26.63.86.36,1.32Z"/>
        </g>
      </g>
    </g>
  </g>
</svg>