<?xml version="1.0" encoding="UTF-8"?><svg id="Layer_2" xmlns="http://www.w3.org/2000/svg" viewBox="0 0 129.79 14.16"><defs><style>.cls-1{fill:#ff6b1a;}.cls-2{fill:#f2f2f2;}</style></defs><g id="MENU"><g><path class="cls-1" d="M60.34,9.64c-.26-.25-.4-.55-.4-.91s.13-.68,.4-.93c.26-.25,.61-.38,1.02-.38s.75,.13,1.01,.38c.26,.25,.4,.56,.4,.93s-.13,.67-.4,.91c-.26,.25-.6,.37-1.01,.37s-.76-.12-1.02-.37Z"/><path class="cls-2" d="M3.34,2.76c.42-.22,.9-.33,1.44-.33,.64,0,1.22,.16,1.74,.49,.52,.33,.93,.79,1.23,1.39s.45,1.31,.45,2.1-.15,1.5-.45,2.11-.71,1.08-1.23,1.41c-.52,.33-1.1,.5-1.74,.5-.55,0-1.03-.11-1.44-.33s-.73-.51-.96-.87v1.09H0V0H2.38V3.64c.22-.36,.54-.65,.96-.88Zm1.94,2.25c-.33-.34-.74-.51-1.22-.51s-.88,.17-1.21,.52c-.33,.34-.49,.81-.49,1.41s.16,1.06,.49,1.41c.33,.34,.73,.52,1.21,.52s.88-.17,1.21-.52c.33-.35,.5-.82,.5-1.41s-.17-1.06-.5-1.4Z"/><path class="cls-2" d="M13.18,9.94c-.61-.32-1.09-.79-1.44-1.39-.35-.6-.52-1.31-.52-2.12s.18-1.5,.53-2.11c.35-.61,.84-1.08,1.45-1.4,.61-.32,1.3-.49,2.06-.49s1.45,.16,2.06,.49c.61,.33,1.1,.79,1.45,1.4s.53,1.31,.53,2.11-.18,1.5-.54,2.11-.85,1.08-1.46,1.4c-.62,.33-1.31,.49-2.07,.49s-1.45-.16-2.06-.49Zm3.22-1.77c.32-.36,.48-.89,.48-1.56s-.16-1.2-.47-1.56c-.31-.36-.69-.55-1.15-.55s-.85,.18-1.16,.54c-.31,.36-.46,.88-.46,1.57s.15,1.2,.45,1.56c.3,.36,.68,.55,1.14,.55s.84-.18,1.16-.55Z"/><path class="cls-2" d="M26.23,2.93c.42-.25,.88-.37,1.39-.37v2.52h-.65c-.59,0-1.04,.13-1.34,.38-.3,.26-.45,.7-.45,1.34v3.61h-2.38V2.65h2.38v1.3c.28-.43,.63-.76,1.05-1.01Z"/><path class="cls-2" d="M38.28,7h-5.39c.04,.48,.19,.85,.47,1.11s.61,.38,1.01,.38c.59,0,1.01-.25,1.24-.75h2.54c-.13,.51-.36,.97-.7,1.38-.34,.41-.76,.73-1.28,.96-.51,.23-1.08,.35-1.71,.35-.76,0-1.44-.16-2.04-.49-.59-.32-1.06-.79-1.39-1.39s-.5-1.31-.5-2.12,.17-1.51,.5-2.12c.33-.6,.79-1.07,1.39-1.39,.59-.32,1.28-.49,2.05-.49s1.42,.16,2.01,.47c.59,.32,1.04,.77,1.37,1.35,.33,.59,.5,1.27,.5,2.05,0,.22-.01,.46-.04,.7Zm-2.4-1.32c0-.41-.14-.73-.42-.98-.28-.24-.63-.36-1.05-.36s-.74,.12-1.01,.35c-.27,.23-.44,.56-.51,.99h2.98Z"/><path class="cls-2" d="M41.78,4.31c.3-.6,.71-1.07,1.23-1.39,.52-.32,1.1-.49,1.74-.49,.55,0,1.03,.11,1.44,.33s.73,.52,.95,.88v-1.1h2.38v7.78h-2.38v-1.1c-.23,.36-.56,.66-.97,.88s-.89,.33-1.44,.33c-.63,0-1.21-.17-1.73-.5-.52-.33-.93-.8-1.23-1.41-.3-.61-.45-1.31-.45-2.11s.15-1.5,.45-2.1Zm4.88,.71c-.33-.34-.73-.52-1.2-.52s-.88,.17-1.21,.51c-.33,.34-.5,.81-.5,1.4s.17,1.07,.5,1.41c.33,.35,.73,.52,1.21,.52s.88-.17,1.2-.52c.33-.34,.5-.81,.5-1.41s-.17-1.06-.5-1.41Z"/><path class="cls-2" d="M55.88,.11V10.42h-2.38V.11h2.38Z"/><path class="cls-2" d="M66,4.52c.32-.6,.75-1.08,1.3-1.41,.54-.34,1.14-.51,1.78-.51,.49,0,.93,.09,1.32,.26s.71,.41,.95,.72v-.89h2.38V14.16h-2.38v-4.68c-.27,.32-.6,.59-.98,.78s-.82,.29-1.32,.29c-.63,0-1.22-.17-1.76-.5s-.97-.8-1.29-1.41-.48-1.29-.48-2.06,.16-1.46,.48-2.06Zm5.1,1c-.16-.28-.37-.5-.63-.64-.26-.14-.53-.22-.82-.22s-.55,.07-.81,.22c-.26,.14-.47,.36-.64,.65s-.25,.64-.25,1.06,.08,.77,.25,1.05c.17,.28,.38,.5,.64,.64s.53,.22,.81,.22,.55-.07,.81-.22,.48-.36,.64-.65c.16-.29,.24-.64,.24-1.06s-.08-.77-.24-1.05Z"/><path class="cls-2" d="M85.37,2.56v7.78h-2.38v-1.06c-.24,.34-.57,.62-.98,.83-.41,.21-.87,.31-1.37,.31-.59,0-1.12-.13-1.57-.4s-.81-.65-1.06-1.15c-.25-.5-.38-1.09-.38-1.77V2.56h2.37V6.79c0,.52,.13,.92,.4,1.21,.27,.29,.63,.43,1.09,.43s.83-.14,1.1-.43c.27-.29,.4-.69,.4-1.21V2.56h2.38Z"/><path class="cls-2" d="M96.6,7h-5.39c.04,.48,.19,.85,.47,1.11s.61,.38,1.01,.38c.59,0,1.01-.25,1.24-.75h2.54c-.13,.51-.36,.97-.7,1.38-.34,.41-.76,.73-1.28,.96-.51,.23-1.08,.35-1.71,.35-.76,0-1.44-.16-2.04-.49-.59-.32-1.06-.79-1.39-1.39s-.5-1.31-.5-2.12,.17-1.51,.5-2.12c.33-.6,.79-1.07,1.39-1.39,.59-.32,1.28-.49,2.05-.49s1.42,.16,2.01,.47c.59,.32,1.04,.77,1.37,1.35,.33,.59,.5,1.27,.5,2.05,0,.22-.01,.46-.04,.7Zm-2.4-1.32c0-.41-.14-.73-.42-.98-.28-.24-.63-.36-1.05-.36s-.74,.12-1.01,.35c-.27,.23-.44,.56-.51,.99h2.98Z"/><path class="cls-2" d="M103.47,2.76c.42-.22,.9-.33,1.44-.33,.64,0,1.22,.16,1.74,.49,.52,.33,.93,.79,1.23,1.39s.45,1.31,.45,2.1-.15,1.5-.45,2.11-.71,1.08-1.23,1.41c-.52,.33-1.1,.5-1.74,.5-.55,0-1.03-.11-1.44-.33s-.73-.51-.96-.87v1.09h-2.38V0h2.38V3.64c.22-.36,.54-.65,.96-.88Zm1.94,2.25c-.33-.34-.74-.51-1.22-.51s-.88,.17-1.21,.52c-.33,.34-.49,.81-.49,1.41s.16,1.06,.49,1.41c.33,.34,.73,.52,1.21,.52s.88-.17,1.21-.52c.33-.35,.5-.82,.5-1.41s-.17-1.06-.5-1.4Z"/><path class="cls-2" d="M119.1,7h-5.39c.04,.48,.19,.85,.47,1.11s.61,.38,1.01,.38c.59,0,1.01-.25,1.24-.75h2.54c-.13,.51-.36,.97-.7,1.38-.34,.41-.76,.73-1.28,.96-.51,.23-1.08,.35-1.71,.35-.76,0-1.44-.16-2.04-.49-.59-.32-1.06-.79-1.39-1.39s-.5-1.31-.5-2.12,.17-1.51,.5-2.12c.33-.6,.79-1.07,1.39-1.39,.59-.32,1.28-.49,2.05-.49s1.42,.16,2.01,.47c.59,.32,1.04,.77,1.37,1.35,.33,.59,.5,1.27,.5,2.05,0,.22-.01,.46-.04,.7Zm-2.4-1.32c0-.41-.14-.73-.42-.98-.28-.24-.63-.36-1.05-.36s-.74,.12-1.01,.35c-.27,.23-.44,.56-.51,.99h2.98Z"/><path class="cls-2" d="M122.65,4.31c.33-.6,.79-1.07,1.38-1.39,.59-.32,1.27-.49,2.03-.49,.98,0,1.79,.26,2.45,.77,.66,.51,1.08,1.23,1.29,2.16h-2.54c-.21-.59-.63-.89-1.24-.89-.44,0-.79,.17-1.05,.51-.26,.34-.39,.82-.39,1.46s.13,1.12,.39,1.46c.26,.34,.61,.51,1.05,.51,.61,0,1.03-.3,1.24-.89h2.54c-.2,.91-.64,1.63-1.3,2.15-.66,.52-1.47,.78-2.44,.78-.76,0-1.44-.16-2.03-.49-.59-.32-1.05-.79-1.38-1.39-.33-.6-.5-1.31-.5-2.12s.17-1.51,.5-2.12Z"/></g></g></svg>